<?xml version="1.0" encoding="UTF-8" standalone="no"?>
<!DOCTYPE svg PUBLIC "-//W3C//DTD SVG 1.1//EN"
 "http://www.w3.org/Graphics/SVG/1.1/DTD/svg11.dtd">
<!-- Generated by graphviz version 2.42.4 (0)
 -->
<!-- Title: master Pages: 1 -->
<svg width="905pt" height="851pt"
 viewBox="0.00 0.00 904.56 850.86" xmlns="http://www.w3.org/2000/svg" xmlns:xlink="http://www.w3.org/1999/xlink">
<g id="graph0" class="graph" transform="scale(1 1) rotate(0) translate(18 832.86)">
<title>master</title>
<polygon fill="white" stroke="transparent" points="-18,18 -18,-832.86 886.56,-832.86 886.56,18 -18,18"/>
<!-- ROOT -->
<g id="node1" class="node">
<title>ROOT</title>
<ellipse fill="#e8eef9" stroke="#555555" cx="440.17" cy="-406.4" rx="119.5" ry="36.54"/>
<text text-anchor="middle" x="440.17" y="-412" font-family="Noto Sans" font-size="18.00">DATA WORKFLOW</text>
<text text-anchor="middle" x="440.17" y="-392" font-family="Noto Sans" font-size="18.00">BANKING ROM</text>
</g>
<!-- AML -->
<g id="node2" class="node">
<title>AML</title>
<path fill="#f7f7f7" stroke="#555555" d="M664.78,-476.68C664.78,-476.68 602.78,-476.68 602.78,-476.68 596.78,-476.68 590.78,-470.68 590.78,-464.68 590.78,-464.68 590.78,-446.68 590.78,-446.68 590.78,-440.68 596.78,-434.68 602.78,-434.68 602.78,-434.68 664.78,-434.68 664.78,-434.68 670.78,-434.68 676.78,-440.68 676.78,-446.68 676.78,-446.68 676.78,-464.68 676.78,-464.68 676.78,-470.68 670.78,-476.68 664.78,-476.68"/>
<text text-anchor="middle" x="633.78" y="-459.48" font-family="Noto Sans" font-size="14.00">Customer</text>
<text text-anchor="middle" x="633.78" y="-444.48" font-family="Noto Sans" font-size="14.00">KYC / AML</text>
</g>
<!-- ROOT&#45;&gt;AML -->
<g id="edge1" class="edge">
<title>ROOT&#45;&gt;AML</title>
<path fill="none" stroke="#555555" d="M532.44,-429.88C550.01,-434.36 567.77,-438.88 583.42,-442.86"/>
<polygon fill="#555555" stroke="#555555" points="583.06,-445.3 590.45,-444.65 584.27,-440.55 583.06,-445.3"/>
</g>
<!-- CORE -->
<g id="node3" class="node">
<title>CORE</title>
<path fill="#f7f7f7" stroke="#555555" d="M634.19,-575.12C634.19,-575.12 522.19,-575.12 522.19,-575.12 516.19,-575.12 510.19,-569.12 510.19,-563.12 510.19,-563.12 510.19,-545.12 510.19,-545.12 510.19,-539.12 516.19,-533.12 522.19,-533.12 522.19,-533.12 634.19,-533.12 634.19,-533.12 640.19,-533.12 646.19,-539.12 646.19,-545.12 646.19,-545.12 646.19,-563.12 646.19,-563.12 646.19,-569.12 640.19,-575.12 634.19,-575.12"/>
<text text-anchor="middle" x="578.19" y="-557.92" font-family="Noto Sans" font-size="14.00">Core Transaction</text>
<text text-anchor="middle" x="578.19" y="-542.92" font-family="Noto Sans" font-size="14.00">Accounting / EOD</text>
</g>
<!-- ROOT&#45;&gt;CORE -->
<g id="edge2" class="edge">
<title>ROOT&#45;&gt;CORE</title>
<path fill="none" stroke="#555555" d="M473.23,-441.78C497.84,-468.13 530.92,-503.53 553.32,-527.5"/>
<polygon fill="#555555" stroke="#555555" points="551.64,-529.29 558.21,-532.73 555.22,-525.95 551.64,-529.29"/>
</g>
<!-- DEP -->
<g id="node4" class="node">
<title>DEP</title>
<path fill="#f7f7f7" stroke="#555555" d="M462.33,-615C462.33,-615 416.33,-615 416.33,-615 410.33,-615 404.33,-609 404.33,-603 404.33,-603 404.33,-591 404.33,-591 404.33,-585 410.33,-579 416.33,-579 416.33,-579 462.33,-579 462.33,-579 468.33,-579 474.33,-585 474.33,-591 474.33,-591 474.33,-603 474.33,-603 474.33,-609 468.33,-615 462.33,-615"/>
<text text-anchor="middle" x="439.33" y="-593.3" font-family="Noto Sans" font-size="14.00">Deposit</text>
</g>
<!-- ROOT&#45;&gt;DEP -->
<g id="edge3" class="edge">
<title>ROOT&#45;&gt;DEP</title>
<path fill="none" stroke="#555555" d="M440.01,-443.6C439.84,-481.31 439.59,-538.65 439.44,-571.5"/>
<polygon fill="#555555" stroke="#555555" points="436.99,-571.89 439.41,-578.9 441.89,-571.91 436.99,-571.89"/>
</g>
<!-- LOAN -->
<g id="node5" class="node">
<title>LOAN</title>
<path fill="#f7f7f7" stroke="#555555" d="M339.26,-583.91C339.26,-583.91 282.26,-583.91 282.26,-583.91 276.26,-583.91 270.26,-577.91 270.26,-571.91 270.26,-571.91 270.26,-553.91 270.26,-553.91 270.26,-547.91 276.26,-541.91 282.26,-541.91 282.26,-541.91 339.26,-541.91 339.26,-541.91 345.26,-541.91 351.26,-547.91 351.26,-553.91 351.26,-553.91 351.26,-571.91 351.26,-571.91 351.26,-577.91 345.26,-583.91 339.26,-583.91"/>
<text text-anchor="middle" x="310.76" y="-566.71" font-family="Noto Sans" font-size="14.00">Loan &amp;</text>
<text text-anchor="middle" x="310.76" y="-551.71" font-family="Noto Sans" font-size="14.00">Collateral</text>
</g>
<!-- ROOT&#45;&gt;LOAN -->
<g id="edge4" class="edge">
<title>ROOT&#45;&gt;LOAN</title>
<path fill="none" stroke="#555555" d="M410.48,-442.3C386.89,-470.83 354.42,-510.1 333.02,-535.98"/>
<polygon fill="#555555" stroke="#555555" points="330.94,-534.65 328.37,-541.61 334.72,-537.77 330.94,-534.65"/>
</g>
<!-- FX -->
<g id="node6" class="node">
<title>FX</title>
<path fill="#f7f7f7" stroke="#555555" d="M294.03,-507.15C294.03,-507.15 195.03,-507.15 195.03,-507.15 189.03,-507.15 183.03,-501.15 183.03,-495.15 183.03,-495.15 183.03,-477.15 183.03,-477.15 183.03,-471.15 189.03,-465.15 195.03,-465.15 195.03,-465.15 294.03,-465.15 294.03,-465.15 300.03,-465.15 306.03,-471.15 306.03,-477.15 306.03,-477.15 306.03,-495.15 306.03,-495.15 306.03,-501.15 300.03,-507.15 294.03,-507.15"/>
<text text-anchor="middle" x="244.53" y="-489.95" font-family="Noto Sans" font-size="14.00">FX / Remittance</text>
<text text-anchor="middle" x="244.53" y="-474.95" font-family="Noto Sans" font-size="14.00">Trade Finance</text>
</g>
<!-- ROOT&#45;&gt;FX -->
<g id="edge5" class="edge">
<title>ROOT&#45;&gt;FX</title>
<path fill="none" stroke="#555555" d="M368.16,-435.75C346.63,-444.53 323.3,-454.04 302.77,-462.41"/>
<polygon fill="#555555" stroke="#555555" points="301.77,-460.17 296.21,-465.08 303.62,-464.71 301.77,-460.17"/>
</g>
<!-- TRE -->
<g id="node7" class="node">
<title>TRE</title>
<path fill="#f7f7f7" stroke="#555555" d="M275.03,-409.55C275.03,-409.55 187.03,-409.55 187.03,-409.55 181.03,-409.55 175.03,-403.55 175.03,-397.55 175.03,-397.55 175.03,-379.55 175.03,-379.55 175.03,-373.55 181.03,-367.55 187.03,-367.55 187.03,-367.55 275.03,-367.55 275.03,-367.55 281.03,-367.55 287.03,-373.55 287.03,-379.55 287.03,-379.55 287.03,-397.55 287.03,-397.55 287.03,-403.55 281.03,-409.55 275.03,-409.55"/>
<text text-anchor="middle" x="231.03" y="-392.35" font-family="Noto Sans" font-size="14.00">Treasury</text>
<text text-anchor="middle" x="231.03" y="-377.35" font-family="Noto Sans" font-size="14.00">Reconciliation</text>
</g>
<!-- ROOT&#45;&gt;TRE -->
<g id="edge6" class="edge">
<title>ROOT&#45;&gt;TRE</title>
<path fill="none" stroke="#555555" d="M324.89,-396.56C314.38,-395.66 304.01,-394.78 294.21,-393.94"/>
<polygon fill="#555555" stroke="#555555" points="294.38,-391.5 287.19,-393.34 293.96,-396.38 294.38,-391.5"/>
</g>
<!-- CH -->
<g id="node8" class="node">
<title>CH</title>
<path fill="#f7f7f7" stroke="#555555" d="M297.03,-313.15C297.03,-313.15 247.03,-313.15 247.03,-313.15 241.03,-313.15 235.03,-307.15 235.03,-301.15 235.03,-301.15 235.03,-289.15 235.03,-289.15 235.03,-283.15 241.03,-277.15 247.03,-277.15 247.03,-277.15 297.03,-277.15 297.03,-277.15 303.03,-277.15 309.03,-283.15 309.03,-289.15 309.03,-289.15 309.03,-301.15 309.03,-301.15 309.03,-307.15 303.03,-313.15 297.03,-313.15"/>
<text text-anchor="middle" x="272.03" y="-291.45" font-family="Noto Sans" font-size="14.00">Channel</text>
</g>
<!-- ROOT&#45;&gt;CH -->
<g id="edge7" class="edge">
<title>ROOT&#45;&gt;CH</title>
<path fill="none" stroke="#555555" d="M389.72,-373.02C362.44,-354.97 329.49,-333.17 305.41,-317.23"/>
<polygon fill="#555555" stroke="#555555" points="306.67,-315.13 299.48,-313.31 303.97,-319.22 306.67,-315.13"/>
</g>
<!-- DW -->
<g id="node9" class="node">
<title>DW</title>
<path fill="#f7f7f7" stroke="#555555" d="M390.08,-249.11C390.08,-249.11 335.08,-249.11 335.08,-249.11 329.08,-249.11 323.08,-243.11 323.08,-237.11 323.08,-237.11 323.08,-225.11 323.08,-225.11 323.08,-219.11 329.08,-213.11 335.08,-213.11 335.08,-213.11 390.08,-213.11 390.08,-213.11 396.08,-213.11 402.08,-219.11 402.08,-225.11 402.08,-225.11 402.08,-237.11 402.08,-237.11 402.08,-243.11 396.08,-249.11 390.08,-249.11"/>
<text text-anchor="middle" x="362.58" y="-227.41" font-family="Noto Sans" font-size="14.00">MIS / DW</text>
</g>
<!-- ROOT&#45;&gt;DW -->
<g id="edge8" class="edge">
<title>ROOT&#45;&gt;DW</title>
<path fill="none" stroke="#555555" d="M423.9,-369.65C408.85,-335.63 386.86,-285.96 373.71,-256.26"/>
<polygon fill="#555555" stroke="#555555" points="375.8,-254.92 370.73,-249.51 371.32,-256.91 375.8,-254.92"/>
</g>
<!-- PMS -->
<g id="node10" class="node">
<title>PMS</title>
<path fill="#f7f7f7" stroke="#555555" d="M537.48,-237.78C537.48,-237.78 426.48,-237.78 426.48,-237.78 420.48,-237.78 414.48,-231.78 414.48,-225.78 414.48,-225.78 414.48,-213.78 414.48,-213.78 414.48,-207.78 420.48,-201.78 426.48,-201.78 426.48,-201.78 537.48,-201.78 537.48,-201.78 543.48,-201.78 549.48,-207.78 549.48,-213.78 549.48,-213.78 549.48,-225.78 549.48,-225.78 549.48,-231.78 543.48,-237.78 537.48,-237.78"/>
<text text-anchor="middle" x="481.98" y="-216.08" font-family="Noto Sans" font-size="14.00">PMS / Profitability</text>
</g>
<!-- ROOT&#45;&gt;PMS -->
<g id="edge9" class="edge">
<title>ROOT&#45;&gt;PMS</title>
<path fill="none" stroke="#555555" d="M448.43,-369.53C456.7,-332.6 469.21,-276.77 476.39,-244.74"/>
<polygon fill="#555555" stroke="#555555" points="478.78,-245.26 477.92,-237.9 474,-244.19 478.78,-245.26"/>
</g>
<!-- RISK -->
<g id="node11" class="node">
<title>RISK</title>
<path fill="#f7f7f7" stroke="#555555" d="M593.91,-287.17C593.91,-287.17 563.91,-287.17 563.91,-287.17 557.91,-287.17 551.91,-281.17 551.91,-275.17 551.91,-275.17 551.91,-263.17 551.91,-263.17 551.91,-257.17 557.91,-251.17 563.91,-251.17 563.91,-251.17 593.91,-251.17 593.91,-251.17 599.91,-251.17 605.91,-257.17 605.91,-263.17 605.91,-263.17 605.91,-275.17 605.91,-275.17 605.91,-281.17 599.91,-287.17 593.91,-287.17"/>
<text text-anchor="middle" x="578.91" y="-265.47" font-family="Noto Sans" font-size="14.00">Risk</text>
</g>
<!-- ROOT&#45;&gt;RISK -->
<g id="edge10" class="edge">
<title>ROOT&#45;&gt;RISK</title>
<path fill="none" stroke="#555555" d="M475.9,-371.06C501.02,-346.21 533.91,-313.68 555.69,-292.14"/>
<polygon fill="#555555" stroke="#555555" points="557.45,-293.84 560.71,-287.18 554.01,-290.36 557.45,-293.84"/>
</g>
<!-- INF -->
<g id="node12" class="node">
<title>INF</title>
<path fill="#f7f7f7" stroke="#555555" d="M671.43,-372.72C671.43,-372.72 584.43,-372.72 584.43,-372.72 578.43,-372.72 572.43,-366.72 572.43,-360.72 572.43,-360.72 572.43,-348.72 572.43,-348.72 572.43,-342.72 578.43,-336.72 584.43,-336.72 584.43,-336.72 671.43,-336.72 671.43,-336.72 677.43,-336.72 683.43,-342.72 683.43,-348.72 683.43,-348.72 683.43,-360.72 683.43,-360.72 683.43,-366.72 677.43,-372.72 671.43,-372.72"/>
<text text-anchor="middle" x="627.93" y="-351.02" font-family="Noto Sans" font-size="14.00">Infrastructure</text>
</g>
<!-- ROOT&#45;&gt;INF -->
<g id="edge11" class="edge">
<title>ROOT&#45;&gt;INF</title>
<path fill="none" stroke="#555555" d="M529.38,-381.84C541.64,-378.47 554,-375.06 565.64,-371.86"/>
<polygon fill="#555555" stroke="#555555" points="566.3,-374.22 572.4,-370 565,-369.5 566.3,-374.22"/>
</g>
<!-- AML_0 -->
<g id="node13" class="node">
<title>AML_0</title>
<polygon fill="#ffffff" stroke="#555555" points="852.68,-456.62 795.68,-456.62 795.68,-420.62 858.68,-420.62 858.68,-450.62 852.68,-456.62"/>
<polyline fill="none" stroke="#555555" points="852.68,-456.62 852.68,-450.62 "/>
<polyline fill="none" stroke="#555555" points="858.68,-450.62 852.68,-450.62 "/>
<text text-anchor="middle" x="827.18" y="-436.12" font-family="Noto Sans" font-size="10.00">CDD/WLF</text>
</g>
<!-- AML&#45;&gt;AML_0 -->
<g id="edge12" class="edge">
<title>AML&#45;&gt;AML_0</title>
<path fill="none" stroke="#555555" d="M677.18,-451.85C710.62,-448.9 756.43,-444.86 788.6,-442.02"/>
<polygon fill="#555555" stroke="#555555" points="788.9,-444.46 795.65,-441.4 788.46,-439.58 788.9,-444.46"/>
</g>
<!-- AML_1 -->
<g id="node14" class="node">
<title>AML_1</title>
<polygon fill="#ffffff" stroke="#555555" points="843.2,-523.47 785.2,-523.47 785.2,-487.47 849.2,-487.47 849.2,-517.47 843.2,-523.47"/>
<polyline fill="none" stroke="#555555" points="843.2,-523.47 843.2,-517.47 "/>
<polyline fill="none" stroke="#555555" points="849.2,-517.47 843.2,-517.47 "/>
<text text-anchor="middle" x="817.2" y="-502.97" font-family="Noto Sans" font-size="10.00">Risk Score</text>
</g>
<!-- AML&#45;&gt;AML_1 -->
<g id="edge13" class="edge">
<title>AML&#45;&gt;AML_1</title>
<path fill="none" stroke="#555555" d="M676.78,-467.35C707.46,-475.68 748.39,-486.79 778.14,-494.86"/>
<polygon fill="#555555" stroke="#555555" points="777.67,-497.28 785.07,-496.74 778.96,-492.55 777.67,-497.28"/>
</g>
<!-- AML_2 -->
<g id="node15" class="node">
<title>AML_2</title>
<polygon fill="#ffffff" stroke="#555555" points="834.39,-586.14 761.39,-586.14 761.39,-550.14 840.39,-550.14 840.39,-580.14 834.39,-586.14"/>
<polyline fill="none" stroke="#555555" points="834.39,-586.14 834.39,-580.14 "/>
<polyline fill="none" stroke="#555555" points="840.39,-580.14 834.39,-580.14 "/>
<text text-anchor="middle" x="800.89" y="-565.64" font-family="Noto Sans" font-size="10.00">TMS/CTR/STR</text>
</g>
<!-- AML&#45;&gt;AML_2 -->
<g id="edge14" class="edge">
<title>AML&#45;&gt;AML_2</title>
<path fill="none" stroke="#555555" d="M665.21,-476.83C694.51,-496.55 738.06,-525.86 767.87,-545.92"/>
<polygon fill="#555555" stroke="#555555" points="766.83,-548.18 774.01,-550.05 769.57,-544.11 766.83,-548.18"/>
</g>
<!-- CORE_0 -->
<g id="node16" class="node">
<title>CORE_0</title>
<polygon fill="#ffffff" stroke="#555555" points="805.27,-642.41 757.27,-642.41 757.27,-606.41 811.27,-606.41 811.27,-636.41 805.27,-642.41"/>
<polyline fill="none" stroke="#555555" points="805.27,-642.41 805.27,-636.41 "/>
<polyline fill="none" stroke="#555555" points="811.27,-636.41 805.27,-636.41 "/>
<text text-anchor="middle" x="784.27" y="-621.91" font-family="Noto Sans" font-size="10.00">Glob_id</text>
</g>
<!-- CORE&#45;&gt;CORE_0 -->
<g id="edge15" class="edge">
<title>CORE&#45;&gt;CORE_0</title>
<path fill="none" stroke="#555555" d="M640.02,-575.21C676.13,-587.53 720.32,-602.6 750.21,-612.79"/>
<polygon fill="#555555" stroke="#555555" points="749.69,-615.21 757.11,-615.15 751.27,-610.57 749.69,-615.21"/>
</g>
<!-- CORE_1 -->
<g id="node17" class="node">
<title>CORE_1</title>
<polygon fill="#ffffff" stroke="#555555" points="797.29,-690.83 714.29,-690.83 714.29,-654.83 803.29,-654.83 803.29,-684.83 797.29,-690.83"/>
<polyline fill="none" stroke="#555555" points="797.29,-690.83 797.29,-684.83 "/>
<polyline fill="none" stroke="#555555" points="803.29,-684.83 797.29,-684.83 "/>
<text text-anchor="middle" x="758.79" y="-670.33" font-family="Noto Sans" font-size="10.00">Master/History</text>
</g>
<!-- CORE&#45;&gt;CORE_1 -->
<g id="edge16" class="edge">
<title>CORE&#45;&gt;CORE_1</title>
<path fill="none" stroke="#555555" d="M610.47,-575.34C642.85,-596.62 692.49,-629.25 725.29,-650.81"/>
<polygon fill="#555555" stroke="#555555" points="724.02,-652.91 731.21,-654.71 726.71,-648.81 724.02,-652.91"/>
</g>
<!-- CORE_2 -->
<g id="node18" class="node">
<title>CORE_2</title>
<polygon fill="#ffffff" stroke="#555555" points="747.02,-735.38 659.02,-735.38 659.02,-699.38 753.02,-699.38 753.02,-729.38 747.02,-735.38"/>
<polyline fill="none" stroke="#555555" points="747.02,-735.38 747.02,-729.38 "/>
<polyline fill="none" stroke="#555555" points="753.02,-729.38 747.02,-729.38 "/>
<text text-anchor="middle" x="706.02" y="-714.88" font-family="Noto Sans" font-size="10.00">Slip/Voucher/GL</text>
</g>
<!-- CORE&#45;&gt;CORE_2 -->
<g id="edge17" class="edge">
<title>CORE&#45;&gt;CORE_2</title>
<path fill="none" stroke="#555555" d="M594.64,-575.13C618.38,-605.45 662.14,-661.34 687.16,-693.29"/>
<polygon fill="#555555" stroke="#555555" points="685.36,-694.97 691.6,-698.97 689.21,-691.95 685.36,-694.97"/>
</g>
<!-- CORE_3 -->
<g id="node19" class="node">
<title>CORE_3</title>
<polygon fill="#ffffff" stroke="#555555" points="655.96,-781.28 588.96,-781.28 588.96,-745.28 661.96,-745.28 661.96,-775.28 655.96,-781.28"/>
<polyline fill="none" stroke="#555555" points="655.96,-781.28 655.96,-775.28 "/>
<polyline fill="none" stroke="#555555" points="661.96,-775.28 655.96,-775.28 "/>
<text text-anchor="middle" x="625.46" y="-760.78" font-family="Noto Sans" font-size="10.00">Accrual/FTP</text>
</g>
<!-- CORE&#45;&gt;CORE_3 -->
<g id="edge18" class="edge">
<title>CORE&#45;&gt;CORE_3</title>
<path fill="none" stroke="#555555" d="M582.98,-575.32C591.75,-614.12 610.34,-696.36 619.75,-738"/>
<polygon fill="#555555" stroke="#555555" points="617.41,-738.75 621.34,-745.04 622.19,-737.67 617.41,-738.75"/>
</g>
<!-- DEP_0 -->
<g id="node20" class="node">
<title>DEP_0</title>
<polygon fill="#ffffff" stroke="#555555" points="574.92,-805.68 511.92,-805.68 511.92,-769.68 580.92,-769.68 580.92,-799.68 574.92,-805.68"/>
<polyline fill="none" stroke="#555555" points="574.92,-805.68 574.92,-799.68 "/>
<polyline fill="none" stroke="#555555" points="580.92,-799.68 574.92,-799.68 "/>
<text text-anchor="middle" x="546.42" y="-785.18" font-family="Noto Sans" font-size="10.00">DEP_ACNO</text>
</g>
<!-- DEP&#45;&gt;DEP_0 -->
<g id="edge19" class="edge">
<title>DEP&#45;&gt;DEP_0</title>
<path fill="none" stroke="#555555" d="M449.6,-615.28C468.95,-649.74 510.82,-724.29 532.61,-763.09"/>
<polygon fill="#555555" stroke="#555555" points="530.62,-764.55 536.19,-769.45 534.89,-762.15 530.62,-764.55"/>
</g>
<!-- DEP_1 -->
<g id="node21" class="node">
<title>DEP_1</title>
<polygon fill="#ffffff" stroke="#555555" points="497.84,-814.86 416.84,-814.86 416.84,-778.86 503.84,-778.86 503.84,-808.86 497.84,-814.86"/>
<polyline fill="none" stroke="#555555" points="497.84,-814.86 497.84,-808.86 "/>
<polyline fill="none" stroke="#555555" points="503.84,-808.86 497.84,-808.86 "/>
<text text-anchor="middle" x="460.34" y="-794.36" font-family="Noto Sans" font-size="10.00">Balance/Status</text>
</g>
<!-- DEP&#45;&gt;DEP_1 -->
<g id="edge20" class="edge">
<title>DEP&#45;&gt;DEP_1</title>
<path fill="none" stroke="#555555" d="M441.23,-615.09C444.99,-650.82 453.37,-730.53 457.67,-771.49"/>
<polygon fill="#555555" stroke="#555555" points="455.26,-771.96 458.43,-778.67 460.13,-771.45 455.26,-771.96"/>
</g>
<!-- DEP_2 -->
<g id="node22" class="node">
<title>DEP_2</title>
<polygon fill="#ffffff" stroke="#555555" points="402.83,-806.63 310.83,-806.63 310.83,-770.63 408.83,-770.63 408.83,-800.63 402.83,-806.63"/>
<polyline fill="none" stroke="#555555" points="402.83,-806.63 402.83,-800.63 "/>
<polyline fill="none" stroke="#555555" points="408.83,-800.63 402.83,-800.63 "/>
<text text-anchor="middle" x="359.83" y="-786.13" font-family="Noto Sans" font-size="10.00">Interest/Rollover</text>
</g>
<!-- DEP&#45;&gt;DEP_2 -->
<g id="edge21" class="edge">
<title>DEP&#45;&gt;DEP_2</title>
<path fill="none" stroke="#555555" d="M431.85,-615.03C417.59,-649.41 386.47,-724.41 370.21,-763.62"/>
<polygon fill="#555555" stroke="#555555" points="367.77,-763.1 367.35,-770.51 372.3,-764.98 367.77,-763.1"/>
</g>
<!-- LOAN_0 -->
<g id="node23" class="node">
<title>LOAN_0</title>
<polygon fill="#ffffff" stroke="#555555" points="296.73,-773.17 174.73,-773.17 174.73,-737.17 302.73,-737.17 302.73,-767.17 296.73,-773.17"/>
<polyline fill="none" stroke="#555555" points="296.73,-773.17 296.73,-767.17 "/>
<polyline fill="none" stroke="#555555" points="302.73,-767.17 296.73,-767.17 "/>
<text text-anchor="middle" x="238.73" y="-752.67" font-family="Noto Sans" font-size="10.00">Line/Account/Execution</text>
</g>
<!-- LOAN&#45;&gt;LOAN_0 -->
<g id="edge22" class="edge">
<title>LOAN&#45;&gt;LOAN_0</title>
<path fill="none" stroke="#555555" d="M302.77,-584.22C289.36,-620.02 262.37,-692.06 248.09,-730.19"/>
<polygon fill="#555555" stroke="#555555" points="245.73,-729.48 245.57,-736.9 250.32,-731.2 245.73,-729.48"/>
</g>
<!-- LOAN_1 -->
<g id="node24" class="node">
<title>LOAN_1</title>
<polygon fill="#ffffff" stroke="#555555" points="198.64,-729.16 98.64,-729.16 98.64,-693.16 204.64,-693.16 204.64,-723.16 198.64,-729.16"/>
<polyline fill="none" stroke="#555555" points="198.64,-729.16 198.64,-723.16 "/>
<polyline fill="none" stroke="#555555" points="204.64,-723.16 198.64,-723.16 "/>
<text text-anchor="middle" x="151.64" y="-708.66" font-family="Noto Sans" font-size="10.00">Schedule/Past Due</text>
</g>
<!-- LOAN&#45;&gt;LOAN_1 -->
<g id="edge23" class="edge">
<title>LOAN&#45;&gt;LOAN_1</title>
<path fill="none" stroke="#555555" d="M287.96,-584.15C258.51,-611.58 207.42,-659.19 176.85,-687.67"/>
<polygon fill="#555555" stroke="#555555" points="174.84,-686.2 171.38,-692.76 178.18,-689.78 174.84,-686.2"/>
</g>
<!-- LOAN_2 -->
<g id="node25" class="node">
<title>LOAN_2</title>
<polygon fill="#ffffff" stroke="#555555" points="121.51,-685.16 66.51,-685.16 66.51,-649.16 127.51,-649.16 127.51,-679.16 121.51,-685.16"/>
<polyline fill="none" stroke="#555555" points="121.51,-685.16 121.51,-679.16 "/>
<polyline fill="none" stroke="#555555" points="127.51,-679.16 121.51,-679.16 "/>
<text text-anchor="middle" x="97.01" y="-664.66" font-family="Noto Sans" font-size="10.00">Collateral</text>
</g>
<!-- LOAN&#45;&gt;LOAN_2 -->
<g id="edge24" class="edge">
<title>LOAN&#45;&gt;LOAN_2</title>
<path fill="none" stroke="#555555" d="M270.05,-582.76C230.78,-601.92 171.85,-630.66 133.91,-649.16"/>
<polygon fill="#555555" stroke="#555555" points="132.76,-646.99 127.55,-652.26 134.91,-651.4 132.76,-646.99"/>
</g>
<!-- FX_0 -->
<g id="node26" class="node">
<title>FX_0</title>
<polygon fill="#ffffff" stroke="#555555" points="104.23,-638.89 43.23,-638.89 43.23,-602.89 110.23,-602.89 110.23,-632.89 104.23,-638.89"/>
<polyline fill="none" stroke="#555555" points="104.23,-638.89 104.23,-632.89 "/>
<polyline fill="none" stroke="#555555" points="110.23,-632.89 104.23,-632.89 "/>
<text text-anchor="middle" x="76.73" y="-618.39" font-family="Noto Sans" font-size="10.00">SWIFT/BIC</text>
</g>
<!-- FX&#45;&gt;FX_0 -->
<g id="edge25" class="edge">
<title>FX&#45;&gt;FX_0</title>
<path fill="none" stroke="#555555" d="M218.31,-507.2C187.51,-531.94 136.6,-572.82 104.95,-598.23"/>
<polygon fill="#555555" stroke="#555555" points="103.2,-596.49 99.28,-602.79 106.27,-600.31 103.2,-596.49"/>
</g>
<!-- FX_1 -->
<g id="node27" class="node">
<title>FX_1</title>
<polygon fill="#ffffff" stroke="#555555" points="89.93,-583.96 24.93,-583.96 24.93,-547.96 95.93,-547.96 95.93,-577.96 89.93,-583.96"/>
<polyline fill="none" stroke="#555555" points="89.93,-583.96 89.93,-577.96 "/>
<polyline fill="none" stroke="#555555" points="95.93,-577.96 89.93,-577.96 "/>
<text text-anchor="middle" x="60.43" y="-563.46" font-family="Noto Sans" font-size="10.00">Settle Bank</text>
</g>
<!-- FX&#45;&gt;FX_1 -->
<g id="edge26" class="edge">
<title>FX&#45;&gt;FX_1</title>
<path fill="none" stroke="#555555" d="M195.68,-507.33C166.69,-519.9 130.3,-535.67 102.57,-547.69"/>
<polygon fill="#555555" stroke="#555555" points="101.52,-545.48 96.07,-550.51 103.47,-549.97 101.52,-545.48"/>
</g>
<!-- FX_2 -->
<g id="node28" class="node">
<title>FX_2</title>
<polygon fill="#ffffff" stroke="#555555" points="93,-522.31 0,-522.31 0,-486.31 99,-486.31 99,-516.31 93,-522.31"/>
<polyline fill="none" stroke="#555555" points="93,-522.31 93,-516.31 "/>
<polyline fill="none" stroke="#555555" points="99,-516.31 93,-516.31 "/>
<text text-anchor="middle" x="49.5" y="-501.81" font-family="Noto Sans" font-size="10.00">L/C &amp; Documents</text>
</g>
<!-- FX&#45;&gt;FX_2 -->
<g id="edge27" class="edge">
<title>FX&#45;&gt;FX_2</title>
<path fill="none" stroke="#555555" d="M182.82,-491.89C158.24,-494.18 130.14,-496.8 106.09,-499.04"/>
<polygon fill="#555555" stroke="#555555" points="105.84,-496.6 99.09,-499.69 106.29,-501.48 105.84,-496.6"/>
</g>
<!-- TRE_0 -->
<g id="node29" class="node">
<title>TRE_0</title>
<polygon fill="#ffffff" stroke="#555555" points="82.18,-456.59 5.18,-456.59 5.18,-420.59 88.18,-420.59 88.18,-450.59 82.18,-456.59"/>
<polyline fill="none" stroke="#555555" points="82.18,-456.59 82.18,-450.59 "/>
<polyline fill="none" stroke="#555555" points="88.18,-450.59 82.18,-450.59 "/>
<text text-anchor="middle" x="46.68" y="-436.09" font-family="Noto Sans" font-size="10.00">Position/M2M</text>
</g>
<!-- TRE&#45;&gt;TRE_0 -->
<g id="edge28" class="edge">
<title>TRE&#45;&gt;TRE_0</title>
<path fill="none" stroke="#555555" d="M174.97,-403.77C149.5,-410.68 119.67,-418.78 95.18,-425.42"/>
<polygon fill="#555555" stroke="#555555" points="94.54,-423.06 88.43,-427.26 95.83,-427.79 94.54,-423.06"/>
</g>
<!-- TRE_1 -->
<g id="node30" class="node">
<title>TRE_1</title>
<polygon fill="#ffffff" stroke="#555555" points="78.25,-389.72 14.25,-389.72 14.25,-353.72 84.25,-353.72 84.25,-383.72 78.25,-389.72"/>
<polyline fill="none" stroke="#555555" points="78.25,-389.72 78.25,-383.72 "/>
<polyline fill="none" stroke="#555555" points="84.25,-383.72 78.25,-383.72 "/>
<text text-anchor="middle" x="49.25" y="-369.22" font-family="Noto Sans" font-size="10.00">Settlement</text>
</g>
<!-- TRE&#45;&gt;TRE_1 -->
<g id="edge29" class="edge">
<title>TRE&#45;&gt;TRE_1</title>
<path fill="none" stroke="#555555" d="M175,-383.36C148.13,-380.88 116.47,-377.95 91.64,-375.65"/>
<polygon fill="#555555" stroke="#555555" points="91.69,-373.19 84.5,-374.99 91.24,-378.07 91.69,-373.19"/>
</g>
<!-- TRE_2 -->
<g id="node31" class="node">
<title>TRE_2</title>
<polygon fill="#ffffff" stroke="#555555" points="94.38,-323.05 19.38,-323.05 19.38,-287.05 100.38,-287.05 100.38,-317.05 94.38,-323.05"/>
<polyline fill="none" stroke="#555555" points="94.38,-323.05 94.38,-317.05 "/>
<polyline fill="none" stroke="#555555" points="100.38,-317.05 94.38,-317.05 "/>
<text text-anchor="middle" x="59.88" y="-302.55" font-family="Noto Sans" font-size="10.00">Nostro Match</text>
</g>
<!-- TRE&#45;&gt;TRE_2 -->
<g id="edge30" class="edge">
<title>TRE&#45;&gt;TRE_2</title>
<path fill="none" stroke="#555555" d="M187.84,-367.48C162,-354.87 129.27,-338.91 103.38,-326.28"/>
<polygon fill="#555555" stroke="#555555" points="104.32,-324.01 96.96,-323.14 102.17,-328.41 104.32,-324.01"/>
</g>
<!-- CH_0 -->
<g id="node32" class="node">
<title>CH_0</title>
<polygon fill="#ffffff" stroke="#555555" points="104.77,-260.85 49.77,-260.85 49.77,-224.85 110.77,-224.85 110.77,-254.85 104.77,-260.85"/>
<polyline fill="none" stroke="#555555" points="104.77,-260.85 104.77,-254.85 "/>
<polyline fill="none" stroke="#555555" points="110.77,-254.85 104.77,-254.85 "/>
<text text-anchor="middle" x="80.27" y="-240.35" font-family="Noto Sans" font-size="10.00">ATM/POS</text>
</g>
<!-- CH&#45;&gt;CH_0 -->
<g id="edge31" class="edge">
<title>CH&#45;&gt;CH_0</title>
<path fill="none" stroke="#555555" d="M234.6,-284.94C200.92,-275.76 151.67,-262.32 117.92,-253.12"/>
<polygon fill="#555555" stroke="#555555" points="118.36,-250.7 110.97,-251.22 117.08,-255.43 118.36,-250.7"/>
</g>
<!-- CH_1 -->
<g id="node33" class="node">
<title>CH_1</title>
<polygon fill="#ffffff" stroke="#555555" points="146.12,-204.86 65.12,-204.86 65.12,-168.86 152.12,-168.86 152.12,-198.86 146.12,-204.86"/>
<polyline fill="none" stroke="#555555" points="146.12,-204.86 146.12,-198.86 "/>
<polyline fill="none" stroke="#555555" points="152.12,-198.86 146.12,-198.86 "/>
<text text-anchor="middle" x="108.62" y="-184.36" font-family="Noto Sans" font-size="10.00">CMS/Open API</text>
</g>
<!-- CH&#45;&gt;CH_1 -->
<g id="edge32" class="edge">
<title>CH&#45;&gt;CH_1</title>
<path fill="none" stroke="#555555" d="M244.68,-277.03C216.32,-258.23 171.96,-228.83 141.65,-208.75"/>
<polygon fill="#555555" stroke="#555555" points="142.98,-206.69 135.79,-204.86 140.27,-210.77 142.98,-206.69"/>
</g>
<!-- CH_2 -->
<g id="node34" class="node">
<title>CH_2</title>
<polygon fill="#ffffff" stroke="#555555" points="172.31,-156.62 124.31,-156.62 124.31,-120.62 178.31,-120.62 178.31,-150.62 172.31,-156.62"/>
<polyline fill="none" stroke="#555555" points="172.31,-156.62 172.31,-150.62 "/>
<polyline fill="none" stroke="#555555" points="178.31,-150.62 172.31,-150.62 "/>
<text text-anchor="middle" x="151.31" y="-136.12" font-family="Noto Sans" font-size="10.00">UMS</text>
</g>
<!-- CH&#45;&gt;CH_2 -->
<g id="edge33" class="edge">
<title>CH&#45;&gt;CH_2</title>
<path fill="none" stroke="#555555" d="M257.95,-276.89C236.05,-248.49 193.84,-193.76 169.61,-162.35"/>
<polygon fill="#555555" stroke="#555555" points="171.52,-160.81 165.3,-156.76 167.64,-163.8 171.52,-160.81"/>
</g>
<!-- DW_0 -->
<g id="node35" class="node">
<title>DW_0</title>
<polygon fill="#ffffff" stroke="#555555" points="245.37,-112.6 170.37,-112.6 170.37,-76.6 251.37,-76.6 251.37,-106.6 245.37,-112.6"/>
<polyline fill="none" stroke="#555555" points="245.37,-112.6 245.37,-106.6 "/>
<polyline fill="none" stroke="#555555" points="251.37,-106.6 245.37,-106.6 "/>
<text text-anchor="middle" x="210.87" y="-92.1" font-family="Noto Sans" font-size="10.00">T+1 Snapshot</text>
</g>
<!-- DW&#45;&gt;DW_0 -->
<g id="edge34" class="edge">
<title>DW&#45;&gt;DW_0</title>
<path fill="none" stroke="#555555" d="M342.44,-212.98C315.12,-188.4 266.32,-144.49 236.44,-117.61"/>
<polygon fill="#555555" stroke="#555555" points="237.94,-115.66 231.1,-112.8 234.66,-119.3 237.94,-115.66"/>
</g>
<!-- DW_1 -->
<g id="node36" class="node">
<title>DW_1</title>
<polygon fill="#ffffff" stroke="#555555" points="319.39,-70.55 259.39,-70.55 259.39,-34.55 325.39,-34.55 325.39,-64.55 319.39,-70.55"/>
<polyline fill="none" stroke="#555555" points="319.39,-70.55 319.39,-64.55 "/>
<polyline fill="none" stroke="#555555" points="325.39,-64.55 319.39,-64.55 "/>
<text text-anchor="middle" x="292.39" y="-50.05" font-family="Noto Sans" font-size="10.00">SCD/Grain</text>
</g>
<!-- DW&#45;&gt;DW_1 -->
<g id="edge35" class="edge">
<title>DW&#45;&gt;DW_1</title>
<path fill="none" stroke="#555555" d="M355.47,-213C342.85,-180.92 316.56,-114.03 302.23,-77.57"/>
<polygon fill="#555555" stroke="#555555" points="304.37,-76.32 299.53,-70.7 299.81,-78.11 304.37,-76.32"/>
</g>
<!-- DW_2 -->
<g id="node37" class="node">
<title>DW_2</title>
<polygon fill="#ffffff" stroke="#555555" points="404.42,-42.97 333.42,-42.97 333.42,-6.97 410.42,-6.97 410.42,-36.97 404.42,-42.97"/>
<polyline fill="none" stroke="#555555" points="404.42,-42.97 404.42,-36.97 "/>
<polyline fill="none" stroke="#555555" points="410.42,-36.97 404.42,-36.97 "/>
<text text-anchor="middle" x="371.92" y="-22.47" font-family="Noto Sans" font-size="10.00">Mart/Report</text>
</g>
<!-- DW&#45;&gt;DW_2 -->
<g id="edge36" class="edge">
<title>DW&#45;&gt;DW_2</title>
<path fill="none" stroke="#555555" d="M363.41,-212.81C365.08,-175.91 368.86,-92.49 370.77,-50.35"/>
<polygon fill="#555555" stroke="#555555" points="373.22,-50.32 371.09,-43.22 368.33,-50.1 373.22,-50.32"/>
</g>
<!-- PMS_0 -->
<g id="node38" class="node">
<title>PMS_0</title>
<polygon fill="#ffffff" stroke="#555555" points="466.45,-36 418.45,-36 418.45,0 472.45,0 472.45,-30 466.45,-36"/>
<polyline fill="none" stroke="#555555" points="466.45,-36 466.45,-30 "/>
<polyline fill="none" stroke="#555555" points="472.45,-30 466.45,-30 "/>
<text text-anchor="middle" x="445.45" y="-15.5" font-family="Noto Sans" font-size="10.00">FTP</text>
</g>
<!-- PMS&#45;&gt;PMS_0 -->
<g id="edge37" class="edge">
<title>PMS&#45;&gt;PMS_0</title>
<path fill="none" stroke="#555555" d="M478.67,-201.52C472.11,-165.28 457.44,-84.22 449.99,-43.04"/>
<polygon fill="#555555" stroke="#555555" points="452.38,-42.53 448.72,-36.08 447.56,-43.4 452.38,-42.53"/>
</g>
<!-- PMS_1 -->
<g id="node39" class="node">
<title>PMS_1</title>
<polygon fill="#ffffff" stroke="#555555" points="535.49,-47.31 480.49,-47.31 480.49,-11.31 541.49,-11.31 541.49,-41.31 535.49,-47.31"/>
<polyline fill="none" stroke="#555555" points="535.49,-47.31 535.49,-41.31 "/>
<polyline fill="none" stroke="#555555" points="541.49,-41.31 535.49,-41.31 "/>
<text text-anchor="middle" x="510.99" y="-26.81" font-family="Noto Sans" font-size="10.00">ABC Cost</text>
</g>
<!-- PMS&#45;&gt;PMS_1 -->
<g id="edge38" class="edge">
<title>PMS&#45;&gt;PMS_1</title>
<path fill="none" stroke="#555555" d="M484.76,-201.52C489.96,-167.39 501.16,-93.86 507.11,-54.84"/>
<polygon fill="#555555" stroke="#555555" points="509.59,-54.81 508.22,-47.52 504.74,-54.07 509.59,-54.81"/>
</g>
<!-- PMS_2 -->
<g id="node40" class="node">
<title>PMS_2</title>
<polygon fill="#ffffff" stroke="#555555" points="612.53,-68.91 549.53,-68.91 549.53,-32.91 618.53,-32.91 618.53,-62.91 612.53,-68.91"/>
<polyline fill="none" stroke="#555555" points="612.53,-68.91 612.53,-62.91 "/>
<polyline fill="none" stroke="#555555" points="618.53,-62.91 612.53,-62.91 "/>
<text text-anchor="middle" x="584.03" y="-48.41" font-family="Noto Sans" font-size="10.00">Credit Cost</text>
</g>
<!-- PMS&#45;&gt;PMS_2 -->
<g id="edge39" class="edge">
<title>PMS&#45;&gt;PMS_2</title>
<path fill="none" stroke="#555555" d="M492.9,-201.71C511.34,-171.19 548.67,-109.43 569.37,-75.17"/>
<polygon fill="#555555" stroke="#555555" points="571.51,-76.37 573.03,-69.11 567.31,-73.83 571.51,-76.37"/>
</g>
<!-- RISK_0 -->
<g id="node41" class="node">
<title>RISK_0</title>
<polygon fill="#ffffff" stroke="#555555" points="699.29,-112.92 626.29,-112.92 626.29,-76.92 705.29,-76.92 705.29,-106.92 699.29,-112.92"/>
<polyline fill="none" stroke="#555555" points="699.29,-112.92 699.29,-106.92 "/>
<polyline fill="none" stroke="#555555" points="705.29,-106.92 699.29,-106.92 "/>
<text text-anchor="middle" x="665.79" y="-92.42" font-family="Noto Sans" font-size="10.00">PD/LGD/EAD</text>
</g>
<!-- RISK&#45;&gt;RISK_0 -->
<g id="edge40" class="edge">
<title>RISK&#45;&gt;RISK_0</title>
<path fill="none" stroke="#555555" d="M588.04,-250.85C603.73,-219.4 635.79,-155.09 653.45,-119.67"/>
<polygon fill="#555555" stroke="#555555" points="655.85,-120.35 656.78,-112.99 651.46,-118.17 655.85,-120.35"/>
</g>
<!-- RISK_1 -->
<g id="node42" class="node">
<title>RISK_1</title>
<polygon fill="#ffffff" stroke="#555555" points="747.65,-156.93 693.65,-156.93 693.65,-120.93 753.65,-120.93 753.65,-150.93 747.65,-156.93"/>
<polyline fill="none" stroke="#555555" points="747.65,-156.93 747.65,-150.93 "/>
<polyline fill="none" stroke="#555555" points="753.65,-150.93 747.65,-150.93 "/>
<text text-anchor="middle" x="723.65" y="-136.43" font-family="Noto Sans" font-size="10.00">RWA/BIS</text>
</g>
<!-- RISK&#45;&gt;RISK_1 -->
<g id="edge41" class="edge">
<title>RISK&#45;&gt;RISK_1</title>
<path fill="none" stroke="#555555" d="M599.03,-251.06C624.81,-227.87 669.53,-187.63 697.8,-162.19"/>
<polygon fill="#555555" stroke="#555555" points="699.66,-163.81 703.23,-157.3 696.38,-160.17 699.66,-163.81"/>
</g>
<!-- RISK_2 -->
<g id="node43" class="node">
<title>RISK_2</title>
<polygon fill="#ffffff" stroke="#555555" points="797.43,-204.54 721.43,-204.54 721.43,-168.54 803.43,-168.54 803.43,-198.54 797.43,-204.54"/>
<polyline fill="none" stroke="#555555" points="797.43,-204.54 797.43,-198.54 "/>
<polyline fill="none" stroke="#555555" points="803.43,-198.54 797.43,-198.54 "/>
<text text-anchor="middle" x="762.43" y="-184.04" font-family="Noto Sans" font-size="10.00">ALM/Liquidity</text>
</g>
<!-- RISK&#45;&gt;RISK_2 -->
<g id="edge42" class="edge">
<title>RISK&#45;&gt;RISK_2</title>
<path fill="none" stroke="#555555" d="M605.99,-256.98C634.78,-244.02 680.85,-223.27 715.56,-207.64"/>
<polygon fill="#555555" stroke="#555555" points="716.97,-209.7 722.34,-204.59 714.95,-205.23 716.97,-209.7"/>
</g>
<!-- INF_0 -->
<g id="node44" class="node">
<title>INF_0</title>
<polygon fill="#ffffff" stroke="#555555" points="812.46,-260.75 762.46,-260.75 762.46,-224.75 818.46,-224.75 818.46,-254.75 812.46,-260.75"/>
<polyline fill="none" stroke="#555555" points="812.46,-260.75 812.46,-254.75 "/>
<polyline fill="none" stroke="#555555" points="818.46,-254.75 812.46,-254.75 "/>
<text text-anchor="middle" x="790.46" y="-240.25" font-family="Noto Sans" font-size="10.00">DMZ/L4</text>
</g>
<!-- INF&#45;&gt;INF_0 -->
<g id="edge43" class="edge">
<title>INF&#45;&gt;INF_0</title>
<path fill="none" stroke="#555555" d="M654.41,-336.48C682.83,-316.9 727.98,-285.79 758.39,-264.84"/>
<polygon fill="#555555" stroke="#555555" points="759.89,-266.78 764.26,-260.79 757.11,-262.74 759.89,-266.78"/>
</g>
<!-- INF_1 -->
<g id="node45" class="node">
<title>INF_1</title>
<polygon fill="#ffffff" stroke="#555555" points="837.44,-323.03 783.44,-323.03 783.44,-287.03 843.44,-287.03 843.44,-317.03 837.44,-323.03"/>
<polyline fill="none" stroke="#555555" points="837.44,-323.03 837.44,-317.03 "/>
<polyline fill="none" stroke="#555555" points="843.44,-317.03 837.44,-317.03 "/>
<text text-anchor="middle" x="813.44" y="-302.53" font-family="Noto Sans" font-size="10.00">AP/Tmax</text>
</g>
<!-- INF&#45;&gt;INF_1 -->
<g id="edge44" class="edge">
<title>INF&#45;&gt;INF_1</title>
<path fill="none" stroke="#555555" d="M683.59,-339.81C713.67,-331.75 749.97,-322.03 776.54,-314.91"/>
<polygon fill="#555555" stroke="#555555" points="777.29,-317.25 783.42,-313.07 776.02,-312.52 777.29,-317.25"/>
</g>
<!-- INF_2 -->
<g id="node46" class="node">
<title>INF_2</title>
<polygon fill="#ffffff" stroke="#555555" points="862.56,-389.57 783.56,-389.57 783.56,-353.57 868.56,-353.57 868.56,-383.57 862.56,-389.57"/>
<polyline fill="none" stroke="#555555" points="862.56,-389.57 862.56,-383.57 "/>
<polyline fill="none" stroke="#555555" points="868.56,-383.57 862.56,-383.57 "/>
<text text-anchor="middle" x="826.06" y="-369.07" font-family="Noto Sans" font-size="10.00">Oracle RAC/DR</text>
</g>
<!-- INF&#45;&gt;INF_2 -->
<g id="edge45" class="edge">
<title>INF&#45;&gt;INF_2</title>
<path fill="none" stroke="#555555" d="M683.65,-359.45C712.77,-361.93 748.12,-364.94 776.31,-367.34"/>
<polygon fill="#555555" stroke="#555555" points="776.14,-369.78 783.32,-367.93 776.55,-364.9 776.14,-369.78"/>
</g>
</g>
</svg>
