<?xml version="1.0" encoding="UTF-8" standalone="no"?>
<!DOCTYPE svg PUBLIC "-//W3C//DTD SVG 1.1//EN"
 "http://www.w3.org/Graphics/SVG/1.1/DTD/svg11.dtd">
<!-- Generated by graphviz version 2.42.4 (0)
 -->
<!-- Title: transaction Pages: 1 -->
<svg width="1610pt" height="133pt"
 viewBox="0.00 0.00 1610.00 133.00" xmlns="http://www.w3.org/2000/svg" xmlns:xlink="http://www.w3.org/1999/xlink">
<g id="graph0" class="graph" transform="scale(1 1) rotate(0) translate(18 115)">
<title>transaction</title>
<polygon fill="white" stroke="transparent" points="-18,18 -18,-115 1592,-115 1592,18 -18,18"/>
<!-- CH -->
<g id="node1" class="node">
<title>CH</title>
<path fill="white" stroke="#555555" d="M89,-66C89,-66 12,-66 12,-66 6,-66 0,-60 0,-54 0,-54 0,-42 0,-42 0,-36 6,-30 12,-30 12,-30 89,-30 89,-30 95,-30 101,-36 101,-42 101,-42 101,-54 101,-54 101,-60 95,-66 89,-66"/>
<text text-anchor="middle" x="50.5" y="-44.3" font-family="Noto Sans" font-size="14.00">Channel/API</text>
</g>
<!-- CTRL -->
<g id="node2" class="node">
<title>CTRL</title>
<path fill="white" stroke="#555555" d="M283,-66C283,-66 153,-66 153,-66 147,-66 141,-60 141,-54 141,-54 141,-42 141,-42 141,-36 147,-30 153,-30 153,-30 283,-30 283,-30 289,-30 295,-36 295,-42 295,-42 295,-54 295,-54 295,-60 289,-66 283,-66"/>
<text text-anchor="middle" x="218" y="-44.3" font-family="Noto Sans" font-size="14.00">AML + Limit + Status</text>
</g>
<!-- CH&#45;&gt;CTRL -->
<g id="edge1" class="edge">
<title>CH&#45;&gt;CTRL</title>
<path fill="none" stroke="#555555" d="M101.16,-48C111.39,-48 122.43,-48 133.49,-48"/>
<polygon fill="#555555" stroke="#555555" points="133.75,-50.45 140.75,-48 133.75,-45.55 133.75,-50.45"/>
</g>
<!-- ID -->
<g id="node3" class="node">
<title>ID</title>
<path fill="white" stroke="#555555" d="M390,-66C390,-66 347,-66 347,-66 341,-66 335,-60 335,-54 335,-54 335,-42 335,-42 335,-36 341,-30 347,-30 347,-30 390,-30 390,-30 396,-30 402,-36 402,-42 402,-42 402,-54 402,-54 402,-60 396,-66 390,-66"/>
<text text-anchor="middle" x="368.5" y="-44.3" font-family="Noto Sans" font-size="14.00">Glob_id</text>
</g>
<!-- CTRL&#45;&gt;ID -->
<g id="edge2" class="edge">
<title>CTRL&#45;&gt;ID</title>
<path fill="none" stroke="#555555" d="M295.43,-48C306.63,-48 317.78,-48 327.83,-48"/>
<polygon fill="#555555" stroke="#555555" points="327.94,-50.45 334.94,-48 327.94,-45.55 327.94,-50.45"/>
</g>
<!-- BM -->
<g id="node4" class="node">
<title>BM</title>
<path fill="white" stroke="#555555" d="M562,-66C562,-66 454,-66 454,-66 448,-66 442,-60 442,-54 442,-54 442,-42 442,-42 442,-36 448,-30 454,-30 454,-30 562,-30 562,-30 568,-30 574,-36 574,-42 574,-42 574,-54 574,-54 574,-60 568,-66 562,-66"/>
<text text-anchor="middle" x="508" y="-44.3" font-family="Noto Sans" font-size="14.00">Business Module</text>
</g>
<!-- ID&#45;&gt;BM -->
<g id="edge3" class="edge">
<title>ID&#45;&gt;BM</title>
<path fill="none" stroke="#555555" d="M402.09,-48C412.02,-48 423.35,-48 434.82,-48"/>
<polygon fill="#555555" stroke="#555555" points="434.96,-50.45 441.96,-48 434.96,-45.55 434.96,-50.45"/>
</g>
<!-- M -->
<g id="node5" class="node">
<title>M</title>
<path fill="white" stroke="#555555" d="M723,-97C723,-97 626,-97 626,-97 620,-97 614,-91 614,-85 614,-85 614,-73 614,-73 614,-67 620,-61 626,-61 626,-61 723,-61 723,-61 729,-61 735,-67 735,-73 735,-73 735,-85 735,-85 735,-91 729,-97 723,-97"/>
<text text-anchor="middle" x="674.5" y="-75.3" font-family="Noto Sans" font-size="14.00">Master UPDATE</text>
</g>
<!-- BM&#45;&gt;M -->
<g id="edge4" class="edge">
<title>BM&#45;&gt;M</title>
<path fill="none" stroke="#555555" d="M574.01,-60.25C584.77,-62.28 595.94,-64.38 606.74,-66.42"/>
<polygon fill="#555555" stroke="#555555" points="606.44,-68.86 613.77,-67.74 607.34,-64.04 606.44,-68.86"/>
</g>
<!-- H -->
<g id="node6" class="node">
<title>H</title>
<path fill="white" stroke="#555555" d="M721,-36C721,-36 628,-36 628,-36 622,-36 616,-30 616,-24 616,-24 616,-12 616,-12 616,-6 622,0 628,0 628,0 721,0 721,0 727,0 733,-6 733,-12 733,-12 733,-24 733,-24 733,-30 727,-36 721,-36"/>
<text text-anchor="middle" x="674.5" y="-14.3" font-family="Noto Sans" font-size="14.00">History INSERT</text>
</g>
<!-- BM&#45;&gt;H -->
<g id="edge5" class="edge">
<title>BM&#45;&gt;H</title>
<path fill="none" stroke="#555555" d="M574.01,-36.14C585.47,-34.05 597.39,-31.88 608.83,-29.79"/>
<polygon fill="#555555" stroke="#555555" points="609.44,-32.17 615.89,-28.51 608.56,-27.35 609.44,-32.17"/>
</g>
<!-- S -->
<g id="node7" class="node">
<title>S</title>
<path fill="white" stroke="#555555" d="M817,-66C817,-66 787,-66 787,-66 781,-66 775,-60 775,-54 775,-54 775,-42 775,-42 775,-36 781,-30 787,-30 787,-30 817,-30 817,-30 823,-30 829,-36 829,-42 829,-42 829,-54 829,-54 829,-60 823,-66 817,-66"/>
<text text-anchor="middle" x="802" y="-44.3" font-family="Noto Sans" font-size="14.00">Slip</text>
</g>
<!-- M&#45;&gt;S -->
<g id="edge6" class="edge">
<title>M&#45;&gt;S</title>
<path fill="none" stroke="#555555" d="M735.31,-64.23C746.49,-61.47 757.79,-58.67 767.79,-56.2"/>
<polygon fill="#555555" stroke="#555555" points="768.62,-58.52 774.82,-54.47 767.44,-53.77 768.62,-58.52"/>
</g>
<!-- H&#45;&gt;S -->
<g id="edge7" class="edge">
<title>H&#45;&gt;S</title>
<path fill="none" stroke="#555555" d="M733.11,-31.77C744.94,-34.6 757.02,-37.49 767.64,-40.03"/>
<polygon fill="#555555" stroke="#555555" points="767.37,-42.48 774.75,-41.72 768.51,-37.71 767.37,-42.48"/>
</g>
<!-- V -->
<g id="node8" class="node">
<title>V</title>
<path fill="white" stroke="#555555" d="M978,-66C978,-66 881,-66 881,-66 875,-66 869,-60 869,-54 869,-54 869,-42 869,-42 869,-36 875,-30 881,-30 881,-30 978,-30 978,-30 984,-30 990,-36 990,-42 990,-42 990,-54 990,-54 990,-60 984,-66 978,-66"/>
<text text-anchor="middle" x="929.5" y="-44.3" font-family="Noto Sans" font-size="14.00">Voucher DR/CR</text>
</g>
<!-- S&#45;&gt;V -->
<g id="edge8" class="edge">
<title>S&#45;&gt;V</title>
<path fill="none" stroke="#555555" d="M829,-48C838.64,-48 850.05,-48 861.65,-48"/>
<polygon fill="#555555" stroke="#555555" points="861.89,-50.45 868.89,-48 861.89,-45.55 861.89,-50.45"/>
</g>
<!-- L -->
<g id="node9" class="node">
<title>L</title>
<path fill="white" stroke="#555555" d="M1092,-66C1092,-66 1042,-66 1042,-66 1036,-66 1030,-60 1030,-54 1030,-54 1030,-42 1030,-42 1030,-36 1036,-30 1042,-30 1042,-30 1092,-30 1092,-30 1098,-30 1104,-36 1104,-42 1104,-42 1104,-54 1104,-54 1104,-60 1098,-66 1092,-66"/>
<text text-anchor="middle" x="1067" y="-44.3" font-family="Noto Sans" font-size="14.00">Local GL</text>
</g>
<!-- V&#45;&gt;L -->
<g id="edge9" class="edge">
<title>V&#45;&gt;L</title>
<path fill="none" stroke="#555555" d="M990.33,-48C1001.27,-48 1012.5,-48 1022.84,-48"/>
<polygon fill="#555555" stroke="#555555" points="1022.84,-50.45 1029.84,-48 1022.84,-45.55 1022.84,-50.45"/>
</g>
<!-- HQ -->
<g id="node10" class="node">
<title>HQ</title>
<path fill="white" stroke="#555555" d="M1194,-66C1194,-66 1156,-66 1156,-66 1150,-66 1144,-60 1144,-54 1144,-54 1144,-42 1144,-42 1144,-36 1150,-30 1156,-30 1156,-30 1194,-30 1194,-30 1200,-30 1206,-36 1206,-42 1206,-42 1206,-54 1206,-54 1206,-60 1200,-66 1194,-66"/>
<text text-anchor="middle" x="1175" y="-44.3" font-family="Noto Sans" font-size="14.00">HQ GL</text>
</g>
<!-- L&#45;&gt;HQ -->
<g id="edge10" class="edge">
<title>L&#45;&gt;HQ</title>
<path fill="none" stroke="#555555" d="M1104.18,-48C1114.71,-48 1126.22,-48 1136.81,-48"/>
<polygon fill="#555555" stroke="#555555" points="1136.97,-50.45 1143.97,-48 1136.97,-45.55 1136.97,-50.45"/>
</g>
<!-- EOD -->
<g id="node11" class="node">
<title>EOD</title>
<path fill="white" stroke="#555555" d="M1400,-66C1400,-66 1258,-66 1258,-66 1252,-66 1246,-60 1246,-54 1246,-54 1246,-42 1246,-42 1246,-36 1252,-30 1258,-30 1258,-30 1400,-30 1400,-30 1406,-30 1412,-36 1412,-42 1412,-42 1412,-54 1412,-54 1412,-60 1406,-66 1400,-66"/>
<text text-anchor="middle" x="1329" y="-44.3" font-family="Noto Sans" font-size="14.00">Accrual / FTP / Netting</text>
</g>
<!-- HQ&#45;&gt;EOD -->
<g id="edge11" class="edge">
<title>HQ&#45;&gt;EOD</title>
<path fill="none" stroke="#555555" d="M1206.03,-48C1215.7,-48 1226.97,-48 1238.67,-48"/>
<polygon fill="#555555" stroke="#555555" points="1239,-50.45 1246,-48 1239,-45.55 1239,-50.45"/>
</g>
<!-- DW -->
<g id="node12" class="node">
<title>DW</title>
<path fill="white" stroke="#555555" d="M1562,-66C1562,-66 1464,-66 1464,-66 1458,-66 1452,-60 1452,-54 1452,-54 1452,-42 1452,-42 1452,-36 1458,-30 1464,-30 1464,-30 1562,-30 1562,-30 1568,-30 1574,-36 1574,-42 1574,-42 1574,-54 1574,-54 1574,-60 1568,-66 1562,-66"/>
<text text-anchor="middle" x="1513" y="-44.3" font-family="Noto Sans" font-size="14.00">DW / PMS / Risk</text>
</g>
<!-- EOD&#45;&gt;DW -->
<g id="edge12" class="edge">
<title>EOD&#45;&gt;DW</title>
<path fill="none" stroke="#555555" d="M1412.21,-48C1423.08,-48 1434.12,-48 1444.7,-48"/>
<polygon fill="#555555" stroke="#555555" points="1444.94,-50.45 1451.94,-48 1444.94,-45.55 1444.94,-50.45"/>
</g>
</g>
</svg>
