<?xml version="1.0" encoding="UTF-8" standalone="no"?>
<!DOCTYPE svg PUBLIC "-//W3C//DTD SVG 1.1//EN"
 "http://www.w3.org/Graphics/SVG/1.1/DTD/svg11.dtd">
<!-- Generated by graphviz version 2.42.4 (0)
 -->
<!-- Title: loan Pages: 1 -->
<svg width="247pt" height="628pt"
 viewBox="0.00 0.00 247.00 628.00" xmlns="http://www.w3.org/2000/svg" xmlns:xlink="http://www.w3.org/1999/xlink">
<g id="graph0" class="graph" transform="scale(1 1) rotate(0) translate(18 610)">
<title>loan</title>
<polygon fill="white" stroke="transparent" points="-18,18 -18,-610 229,-610 229,18 -18,18"/>
<!-- A -->
<g id="node1" class="node">
<title>A</title>
<path fill="white" stroke="#555555" d="M93,-592C93,-592 12,-592 12,-592 6,-592 0,-586 0,-580 0,-580 0,-562 0,-562 0,-556 6,-550 12,-550 12,-550 93,-550 93,-550 99,-550 105,-556 105,-562 105,-562 105,-580 105,-580 105,-586 99,-592 93,-592"/>
<text text-anchor="middle" x="52.5" y="-574.8" font-family="Noto Sans" font-size="14.00">Application</text>
<text text-anchor="middle" x="52.5" y="-559.8" font-family="Noto Sans" font-size="14.00">brw_aplct_no</text>
</g>
<!-- P -->
<g id="node2" class="node">
<title>P</title>
<path fill="white" stroke="#555555" d="M78.5,-510C78.5,-510 26.5,-510 26.5,-510 20.5,-510 14.5,-504 14.5,-498 14.5,-498 14.5,-486 14.5,-486 14.5,-480 20.5,-474 26.5,-474 26.5,-474 78.5,-474 78.5,-474 84.5,-474 90.5,-480 90.5,-486 90.5,-486 90.5,-498 90.5,-498 90.5,-504 84.5,-510 78.5,-510"/>
<text text-anchor="middle" x="52.5" y="-488.3" font-family="Noto Sans" font-size="14.00">Approval</text>
</g>
<!-- A&#45;&gt;P -->
<g id="edge1" class="edge">
<title>A&#45;&gt;P</title>
<path fill="none" stroke="#555555" d="M52.5,-549.77C52.5,-539.87 52.5,-527.88 52.5,-517.47"/>
<polygon fill="#555555" stroke="#555555" points="54.95,-517.23 52.5,-510.23 50.05,-517.23 54.95,-517.23"/>
</g>
<!-- L -->
<g id="node3" class="node">
<title>L</title>
<path fill="white" stroke="#555555" d="M106,-434C106,-434 39,-434 39,-434 33,-434 27,-428 27,-422 27,-422 27,-404 27,-404 27,-398 33,-392 39,-392 39,-392 106,-392 106,-392 112,-392 118,-398 118,-404 118,-404 118,-422 118,-422 118,-428 112,-434 106,-434"/>
<text text-anchor="middle" x="72.5" y="-416.8" font-family="Noto Sans" font-size="14.00">Credit Line</text>
<text text-anchor="middle" x="72.5" y="-401.8" font-family="Noto Sans" font-size="14.00">lon_imt_no</text>
</g>
<!-- P&#45;&gt;L -->
<g id="edge2" class="edge">
<title>P&#45;&gt;L</title>
<path fill="none" stroke="#555555" d="M56.94,-473.91C59.45,-464.24 62.65,-451.93 65.49,-440.99"/>
<polygon fill="#555555" stroke="#555555" points="67.91,-441.43 67.3,-434.04 63.16,-440.2 67.91,-441.43"/>
</g>
<!-- AC -->
<g id="node4" class="node">
<title>AC</title>
<path fill="white" stroke="#555555" d="M157,-352C157,-352 72,-352 72,-352 66,-352 60,-346 60,-340 60,-340 60,-322 60,-322 60,-316 66,-310 72,-310 72,-310 157,-310 157,-310 163,-310 169,-316 169,-322 169,-322 169,-340 169,-340 169,-346 163,-352 157,-352"/>
<text text-anchor="middle" x="114.5" y="-334.8" font-family="Noto Sans" font-size="14.00">Loan Account</text>
<text text-anchor="middle" x="114.5" y="-319.8" font-family="Noto Sans" font-size="14.00">lon_acno</text>
</g>
<!-- L&#45;&gt;AC -->
<g id="edge3" class="edge">
<title>L&#45;&gt;AC</title>
<path fill="none" stroke="#555555" d="M83.1,-391.81C88.42,-381.67 94.94,-369.27 100.65,-358.38"/>
<polygon fill="#555555" stroke="#555555" points="102.82,-359.52 103.91,-352.18 98.48,-357.24 102.82,-359.52"/>
</g>
<!-- E -->
<g id="node5" class="node">
<title>E</title>
<path fill="white" stroke="#555555" d="M144.5,-270C144.5,-270 84.5,-270 84.5,-270 78.5,-270 72.5,-264 72.5,-258 72.5,-258 72.5,-240 72.5,-240 72.5,-234 78.5,-228 84.5,-228 84.5,-228 144.5,-228 144.5,-228 150.5,-228 156.5,-234 156.5,-240 156.5,-240 156.5,-258 156.5,-258 156.5,-264 150.5,-270 144.5,-270"/>
<text text-anchor="middle" x="114.5" y="-252.8" font-family="Noto Sans" font-size="14.00">Execution</text>
<text text-anchor="middle" x="114.5" y="-237.8" font-family="Noto Sans" font-size="14.00">exe_no</text>
</g>
<!-- AC&#45;&gt;E -->
<g id="edge4" class="edge">
<title>AC&#45;&gt;E</title>
<path fill="none" stroke="#555555" d="M114.5,-309.81C114.5,-299.96 114.5,-287.96 114.5,-277.3"/>
<polygon fill="#555555" stroke="#555555" points="116.95,-277.18 114.5,-270.18 112.05,-277.18 116.95,-277.18"/>
</g>
<!-- S -->
<g id="node6" class="node">
<title>S</title>
<path fill="white" stroke="#555555" d="M142,-188C142,-188 87,-188 87,-188 81,-188 75,-182 75,-176 75,-176 75,-164 75,-164 75,-158 81,-152 87,-152 87,-152 142,-152 142,-152 148,-152 154,-158 154,-164 154,-164 154,-176 154,-176 154,-182 148,-188 142,-188"/>
<text text-anchor="middle" x="114.5" y="-166.3" font-family="Noto Sans" font-size="14.00">Schedule</text>
</g>
<!-- E&#45;&gt;S -->
<g id="edge5" class="edge">
<title>E&#45;&gt;S</title>
<path fill="none" stroke="#555555" d="M114.5,-227.77C114.5,-217.87 114.5,-205.88 114.5,-195.47"/>
<polygon fill="#555555" stroke="#555555" points="116.95,-195.23 114.5,-188.23 112.05,-195.23 116.95,-195.23"/>
</g>
<!-- R -->
<g id="node7" class="node">
<title>R</title>
<path fill="white" stroke="#555555" d="M94.5,-112C94.5,-112 24.5,-112 24.5,-112 18.5,-112 12.5,-106 12.5,-100 12.5,-100 12.5,-88 12.5,-88 12.5,-82 18.5,-76 24.5,-76 24.5,-76 94.5,-76 94.5,-76 100.5,-76 106.5,-82 106.5,-88 106.5,-88 106.5,-100 106.5,-100 106.5,-106 100.5,-112 94.5,-112"/>
<text text-anchor="middle" x="59.5" y="-90.3" font-family="Noto Sans" font-size="14.00">Repayment</text>
</g>
<!-- S&#45;&gt;R -->
<g id="edge6" class="edge">
<title>S&#45;&gt;R</title>
<path fill="none" stroke="#555555" d="M101.74,-151.84C94.25,-141.75 84.67,-128.87 76.54,-117.92"/>
<polygon fill="#555555" stroke="#555555" points="78.33,-116.23 72.19,-112.07 74.4,-119.15 78.33,-116.23"/>
</g>
<!-- PD -->
<g id="node8" class="node">
<title>PD</title>
<path fill="white" stroke="#555555" d="M197.5,-112C197.5,-112 143.5,-112 143.5,-112 137.5,-112 131.5,-106 131.5,-100 131.5,-100 131.5,-88 131.5,-88 131.5,-82 137.5,-76 143.5,-76 143.5,-76 197.5,-76 197.5,-76 203.5,-76 209.5,-82 209.5,-88 209.5,-88 209.5,-100 209.5,-100 209.5,-106 203.5,-112 197.5,-112"/>
<text text-anchor="middle" x="170.5" y="-90.3" font-family="Noto Sans" font-size="14.00">Past Due</text>
</g>
<!-- S&#45;&gt;PD -->
<g id="edge7" class="edge">
<title>S&#45;&gt;PD</title>
<path fill="none" stroke="#555555" d="M127.49,-151.84C135.12,-141.75 144.87,-128.87 153.15,-117.92"/>
<polygon fill="#555555" stroke="#555555" points="155.31,-119.13 157.58,-112.07 151.4,-116.17 155.31,-119.13"/>
</g>
<!-- RK -->
<g id="node10" class="node">
<title>RK</title>
<path fill="white" stroke="#555555" d="M199,-36C199,-36 142,-36 142,-36 136,-36 130,-30 130,-24 130,-24 130,-12 130,-12 130,-6 136,0 142,0 142,0 199,0 199,0 205,0 211,-6 211,-12 211,-12 211,-24 211,-24 211,-30 205,-36 199,-36"/>
<text text-anchor="middle" x="170.5" y="-14.3" font-family="Noto Sans" font-size="14.00">Risk / CIC</text>
</g>
<!-- PD&#45;&gt;RK -->
<g id="edge10" class="edge">
<title>PD&#45;&gt;RK</title>
<path fill="none" stroke="#555555" d="M170.5,-75.84C170.5,-66.12 170.5,-53.82 170.5,-43.15"/>
<polygon fill="#555555" stroke="#555555" points="172.95,-43.07 170.5,-36.07 168.05,-43.07 172.95,-43.07"/>
</g>
<!-- C -->
<g id="node9" class="node">
<title>C</title>
<path fill="white" stroke="#555555" d="M185,-510C185,-510 128,-510 128,-510 122,-510 116,-504 116,-498 116,-498 116,-486 116,-486 116,-480 122,-474 128,-474 128,-474 185,-474 185,-474 191,-474 197,-480 197,-486 197,-486 197,-498 197,-498 197,-504 191,-510 185,-510"/>
<text text-anchor="middle" x="156.5" y="-488.3" font-family="Noto Sans" font-size="14.00">Collateral</text>
</g>
<!-- C&#45;&gt;L -->
<g id="edge8" class="edge">
<title>C&#45;&gt;L</title>
<path fill="none" stroke="#555555" d="M137.86,-473.91C126.61,-463.6 112.08,-450.28 99.58,-438.82"/>
<polygon fill="#555555" stroke="#555555" points="101.18,-436.96 94.36,-434.04 97.87,-440.58 101.18,-436.96"/>
</g>
<!-- C&#45;&gt;AC -->
<g id="edge9" class="edge">
<title>C&#45;&gt;AC</title>
<path fill="none" stroke="#555555" d="M152.01,-473.83C146.84,-454.08 138.09,-420.69 130.5,-392 127.65,-381.25 124.5,-369.41 121.75,-359.12"/>
<polygon fill="#555555" stroke="#555555" points="124.1,-358.4 119.93,-352.27 119.36,-359.66 124.1,-358.4"/>
</g>
</g>
</svg>
