<?xml version="1.0" encoding="UTF-8" standalone="no"?>
<!DOCTYPE svg PUBLIC "-//W3C//DTD SVG 1.1//EN"
 "http://www.w3.org/Graphics/SVG/1.1/DTD/svg11.dtd">
<!-- Generated by graphviz version 2.42.4 (0)
 -->
<!-- Title: eod Pages: 1 -->
<svg width="993pt" height="136pt"
 viewBox="0.00 0.00 993.00 136.00" xmlns="http://www.w3.org/2000/svg" xmlns:xlink="http://www.w3.org/1999/xlink">
<g id="graph0" class="graph" transform="scale(1 1) rotate(0) translate(18 118)">
<title>eod</title>
<polygon fill="white" stroke="transparent" points="-18,18 -18,-118 975,-118 975,18 -18,18"/>
<!-- B -->
<g id="node1" class="node">
<title>B</title>
<path fill="white" stroke="#555555" d="M123,-66C123,-66 12,-66 12,-66 6,-66 0,-60 0,-54 0,-54 0,-42 0,-42 0,-36 6,-30 12,-30 12,-30 123,-30 123,-30 129,-30 135,-36 135,-42 135,-42 135,-54 135,-54 135,-60 129,-66 123,-66"/>
<text text-anchor="middle" x="67.5" y="-44.3" font-family="Noto Sans" font-size="14.00">Account Balances</text>
</g>
<!-- A -->
<g id="node2" class="node">
<title>A</title>
<path fill="white" stroke="#555555" d="M273,-97C273,-97 187,-97 187,-97 181,-97 175,-91 175,-85 175,-85 175,-73 175,-73 175,-67 181,-61 187,-61 187,-61 273,-61 273,-61 279,-61 285,-67 285,-73 285,-73 285,-85 285,-85 285,-91 279,-97 273,-97"/>
<text text-anchor="middle" x="230" y="-75.3" font-family="Noto Sans" font-size="14.00">Accrual Detail</text>
</g>
<!-- B&#45;&gt;A -->
<g id="edge1" class="edge">
<title>B&#45;&gt;A</title>
<path fill="none" stroke="#555555" d="M135.17,-60.88C146.05,-62.98 157.28,-65.15 168.01,-67.22"/>
<polygon fill="#555555" stroke="#555555" points="167.65,-69.65 174.99,-68.57 168.58,-64.83 167.65,-69.65"/>
</g>
<!-- F -->
<g id="node3" class="node">
<title>F</title>
<path fill="white" stroke="#555555" d="M260.5,-36C260.5,-36 199.5,-36 199.5,-36 193.5,-36 187.5,-30 187.5,-24 187.5,-24 187.5,-12 187.5,-12 187.5,-6 193.5,0 199.5,0 199.5,0 260.5,0 260.5,0 266.5,0 272.5,-6 272.5,-12 272.5,-12 272.5,-24 272.5,-24 272.5,-30 266.5,-36 260.5,-36"/>
<text text-anchor="middle" x="230" y="-14.3" font-family="Noto Sans" font-size="14.00">FTP Detail</text>
</g>
<!-- B&#45;&gt;F -->
<g id="edge2" class="edge">
<title>B&#45;&gt;F</title>
<path fill="none" stroke="#555555" d="M135.17,-35.54C150.13,-32.74 165.74,-29.82 179.84,-27.19"/>
<polygon fill="#555555" stroke="#555555" points="180.63,-29.53 187.06,-25.84 179.73,-24.72 180.63,-29.53"/>
</g>
<!-- G -->
<g id="node4" class="node">
<title>G</title>
<path fill="white" stroke="#555555" d="M477,-100C477,-100 337,-100 337,-100 331,-100 325,-94 325,-88 325,-88 325,-70 325,-70 325,-64 331,-58 337,-58 337,-58 477,-58 477,-58 483,-58 489,-64 489,-70 489,-70 489,-88 489,-88 489,-94 483,-100 477,-100"/>
<text text-anchor="middle" x="407" y="-82.8" font-family="Noto Sans" font-size="14.00">GROUP BY</text>
<text text-anchor="middle" x="407" y="-67.8" font-family="Noto Sans" font-size="14.00">COA/Branch/Currency</text>
</g>
<!-- A&#45;&gt;G -->
<g id="edge3" class="edge">
<title>A&#45;&gt;G</title>
<path fill="none" stroke="#555555" d="M285.41,-79C295.7,-79 306.7,-79 317.72,-79"/>
<polygon fill="#555555" stroke="#555555" points="317.96,-81.45 324.96,-79 317.96,-76.55 317.96,-81.45"/>
</g>
<!-- F&#45;&gt;G -->
<g id="edge4" class="edge">
<title>F&#45;&gt;G</title>
<path fill="none" stroke="#555555" d="M272.92,-32.61C292.62,-39.48 316.6,-47.84 338.75,-55.56"/>
<polygon fill="#555555" stroke="#555555" points="338.14,-57.94 345.56,-57.93 339.75,-53.31 338.14,-57.94"/>
</g>
<!-- P -->
<g id="node7" class="node">
<title>P</title>
<path fill="white" stroke="#555555" d="M601.5,-36C601.5,-36 571.5,-36 571.5,-36 565.5,-36 559.5,-30 559.5,-24 559.5,-24 559.5,-12 559.5,-12 559.5,-6 565.5,0 571.5,0 571.5,0 601.5,0 601.5,0 607.5,0 613.5,-6 613.5,-12 613.5,-12 613.5,-24 613.5,-24 613.5,-30 607.5,-36 601.5,-36"/>
<text text-anchor="middle" x="586.5" y="-14.3" font-family="Noto Sans" font-size="14.00">PMS</text>
</g>
<!-- F&#45;&gt;P -->
<g id="edge7" class="edge">
<title>F&#45;&gt;P</title>
<path fill="none" stroke="#555555" d="M272.71,-18C343.91,-18 487.48,-18 552.35,-18"/>
<polygon fill="#555555" stroke="#555555" points="552.49,-20.45 559.49,-18 552.49,-15.55 552.49,-20.45"/>
</g>
<!-- N -->
<g id="node5" class="node">
<title>N</title>
<path fill="white" stroke="#555555" d="M632,-97C632,-97 541,-97 541,-97 535,-97 529,-91 529,-85 529,-85 529,-73 529,-73 529,-67 535,-61 541,-61 541,-61 632,-61 632,-61 638,-61 644,-67 644,-73 644,-73 644,-85 644,-85 644,-91 638,-97 632,-97"/>
<text text-anchor="middle" x="586.5" y="-75.3" font-family="Noto Sans" font-size="14.00">DR/CR Netting</text>
</g>
<!-- G&#45;&gt;N -->
<g id="edge5" class="edge">
<title>G&#45;&gt;N</title>
<path fill="none" stroke="#555555" d="M489.22,-79C500.12,-79 511.18,-79 521.72,-79"/>
<polygon fill="#555555" stroke="#555555" points="521.93,-81.45 528.93,-79 521.93,-76.55 521.93,-81.45"/>
</g>
<!-- GL -->
<g id="node6" class="node">
<title>GL</title>
<path fill="white" stroke="#555555" d="M793,-95C793,-95 696,-95 696,-95 690,-95 684,-89 684,-83 684,-83 684,-71 684,-71 684,-65 690,-59 696,-59 696,-59 793,-59 793,-59 799,-59 805,-65 805,-71 805,-71 805,-83 805,-83 805,-89 799,-95 793,-95"/>
<text text-anchor="middle" x="744.5" y="-73.3" font-family="Noto Sans" font-size="14.00">General Ledger</text>
</g>
<!-- N&#45;&gt;GL -->
<g id="edge6" class="edge">
<title>N&#45;&gt;GL</title>
<path fill="none" stroke="#555555" d="M644.26,-78.27C654.84,-78.14 665.98,-77.99 676.82,-77.85"/>
<polygon fill="#555555" stroke="#555555" points="676.93,-80.3 683.89,-77.76 676.86,-75.4 676.93,-80.3"/>
</g>
<!-- R -->
<g id="node8" class="node">
<title>R</title>
<path fill="white" stroke="#555555" d="M945,-66C945,-66 857,-66 857,-66 851,-66 845,-60 845,-54 845,-54 845,-42 845,-42 845,-36 851,-30 857,-30 857,-30 945,-30 945,-30 951,-30 957,-36 957,-42 957,-42 957,-54 957,-54 957,-60 951,-66 945,-66"/>
<text text-anchor="middle" x="901" y="-44.3" font-family="Noto Sans" font-size="14.00">Reconciliation</text>
</g>
<!-- GL&#45;&gt;R -->
<g id="edge8" class="edge">
<title>GL&#45;&gt;R</title>
<path fill="none" stroke="#555555" d="M805.23,-65.79C815.96,-63.77 827.16,-61.67 837.95,-59.65"/>
<polygon fill="#555555" stroke="#555555" points="838.55,-62.03 844.98,-58.33 837.64,-57.21 838.55,-62.03"/>
</g>
<!-- P&#45;&gt;R -->
<g id="edge9" class="edge">
<title>P&#45;&gt;R</title>
<path fill="none" stroke="#555555" d="M613.61,-20.51C662.51,-25.2 769.13,-35.44 837.59,-42.01"/>
<polygon fill="#555555" stroke="#555555" points="837.72,-44.48 844.92,-42.71 838.18,-39.6 837.72,-44.48"/>
</g>
</g>
</svg>
