<?xml version="1.0" encoding="UTF-8" standalone="no"?>
<!DOCTYPE svg PUBLIC "-//W3C//DTD SVG 1.1//EN"
 "http://www.w3.org/Graphics/SVG/1.1/DTD/svg11.dtd">
<!-- Generated by graphviz version 2.42.4 (0)
 -->
<!-- Title: dw Pages: 1 -->
<svg width="1057pt" height="168pt"
 viewBox="0.00 0.00 1057.00 168.37" xmlns="http://www.w3.org/2000/svg" xmlns:xlink="http://www.w3.org/1999/xlink">
<g id="graph0" class="graph" transform="scale(1 1) rotate(0) translate(18 150.37)">
<title>dw</title>
<polygon fill="white" stroke="transparent" points="-18,18 -18,-150.37 1039,-150.37 1039,18 -18,18"/>
<!-- SRC -->
<g id="node1" class="node">
<title>SRC</title>
<path fill="white" stroke="#555555" d="M106,-106C106,-106 12,-106 12,-106 6,-106 0,-100 0,-94 0,-94 0,-82 0,-82 0,-76 6,-70 12,-70 12,-70 106,-70 106,-70 112,-70 118,-76 118,-82 118,-82 118,-94 118,-94 118,-100 112,-106 106,-106"/>
<text text-anchor="middle" x="59" y="-84.3" font-family="Noto Sans" font-size="14.00">Core / Channel</text>
</g>
<!-- B -->
<g id="node2" class="node">
<title>B</title>
<path fill="white" stroke="#555555" d="M225,-106C225,-106 170,-106 170,-106 164,-106 158,-100 158,-94 158,-94 158,-82 158,-82 158,-76 164,-70 170,-70 170,-70 225,-70 225,-70 231,-70 237,-76 237,-82 237,-82 237,-94 237,-94 237,-100 231,-106 225,-106"/>
<text text-anchor="middle" x="197.5" y="-84.3" font-family="Noto Sans" font-size="14.00">0th Basic</text>
</g>
<!-- SRC&#45;&gt;B -->
<g id="edge1" class="edge">
<title>SRC&#45;&gt;B</title>
<path fill="none" stroke="#555555" d="M118.28,-88C129.12,-88 140.29,-88 150.69,-88"/>
<polygon fill="#555555" stroke="#555555" points="150.74,-90.45 157.74,-88 150.74,-85.55 150.74,-90.45"/>
</g>
<!-- I -->
<g id="node3" class="node">
<title>I</title>
<path fill="white" stroke="#555555" d="M382,-106C382,-106 289,-106 289,-106 283,-106 277,-100 277,-94 277,-94 277,-82 277,-82 277,-76 283,-70 289,-70 289,-70 382,-70 382,-70 388,-70 394,-76 394,-82 394,-82 394,-94 394,-94 394,-100 388,-106 382,-106"/>
<text text-anchor="middle" x="335.5" y="-84.3" font-family="Noto Sans" font-size="14.00">1st Integration</text>
</g>
<!-- B&#45;&gt;I -->
<g id="edge2" class="edge">
<title>B&#45;&gt;I</title>
<path fill="none" stroke="#555555" d="M237.11,-88C247.22,-88 258.41,-88 269.49,-88"/>
<polygon fill="#555555" stroke="#555555" points="269.75,-90.45 276.75,-88 269.75,-85.55 269.75,-90.45"/>
</g>
<!-- D -->
<g id="node4" class="node">
<title>D</title>
<path fill="white" stroke="#555555" d="M525,-106C525,-106 446,-106 446,-106 440,-106 434,-100 434,-94 434,-94 434,-82 434,-82 434,-76 440,-70 446,-70 446,-70 525,-70 525,-70 531,-70 537,-76 537,-82 537,-82 537,-94 537,-94 537,-100 531,-106 525,-106"/>
<text text-anchor="middle" x="485.5" y="-84.3" font-family="Noto Sans" font-size="14.00">2nd Detailed</text>
</g>
<!-- I&#45;&gt;D -->
<g id="edge3" class="edge">
<title>I&#45;&gt;D</title>
<path fill="none" stroke="#555555" d="M394.14,-88C404.93,-88 416.2,-88 426.99,-88"/>
<polygon fill="#555555" stroke="#555555" points="426.99,-90.45 433.99,-88 426.99,-85.55 426.99,-90.45"/>
</g>
<!-- K -->
<g id="node5" class="node">
<title>K</title>
<path fill="white" stroke="#555555" d="M879,-106C879,-106 802,-106 802,-106 796,-106 790,-100 790,-94 790,-94 790,-82 790,-82 790,-76 796,-70 802,-70 802,-70 879,-70 879,-70 885,-70 891,-76 891,-82 891,-82 891,-94 891,-94 891,-100 885,-106 879,-106"/>
<text text-anchor="middle" x="840.5" y="-84.3" font-family="Noto Sans" font-size="14.00">3rd KPI Mart</text>
</g>
<!-- D&#45;&gt;K -->
<g id="edge4" class="edge">
<title>D&#45;&gt;K</title>
<path fill="none" stroke="#555555" d="M525.27,-106.06C540.97,-112.44 559.5,-118.82 577,-122 652.65,-135.74 674.37,-135.88 750,-122 764.89,-119.27 780.52,-114.17 794.47,-108.75"/>
<polygon fill="#555555" stroke="#555555" points="795.59,-110.94 801.18,-106.06 793.77,-106.39 795.59,-110.94"/>
</g>
<!-- PMS -->
<g id="node7" class="node">
<title>PMS</title>
<path fill="white" stroke="#555555" d="M738,-109C738,-109 589,-109 589,-109 583,-109 577,-103 577,-97 577,-97 577,-79 577,-79 577,-73 583,-67 589,-67 589,-67 738,-67 738,-67 744,-67 750,-73 750,-79 750,-79 750,-97 750,-97 750,-103 744,-109 738,-109"/>
<text text-anchor="middle" x="663.5" y="-91.8" font-family="Noto Sans" font-size="14.00">PMS</text>
<text text-anchor="middle" x="663.5" y="-76.8" font-family="Noto Sans" font-size="14.00">FTP + ABC + Credit Cost</text>
</g>
<!-- D&#45;&gt;PMS -->
<g id="edge6" class="edge">
<title>D&#45;&gt;PMS</title>
<path fill="none" stroke="#555555" d="M537.41,-88C547.57,-88 558.53,-88 569.61,-88"/>
<polygon fill="#555555" stroke="#555555" points="569.89,-90.45 576.89,-88 569.89,-85.55 569.89,-90.45"/>
</g>
<!-- RISK -->
<g id="node8" class="node">
<title>RISK</title>
<path fill="white" stroke="#555555" d="M720,-42C720,-42 607,-42 607,-42 601,-42 595,-36 595,-30 595,-30 595,-12 595,-12 595,-6 601,0 607,0 607,0 720,0 720,0 726,0 732,-6 732,-12 732,-12 732,-30 732,-30 732,-36 726,-42 720,-42"/>
<text text-anchor="middle" x="663.5" y="-24.8" font-family="Noto Sans" font-size="14.00">Risk</text>
<text text-anchor="middle" x="663.5" y="-9.8" font-family="Noto Sans" font-size="14.00">EAD + RWA + ALM</text>
</g>
<!-- D&#45;&gt;RISK -->
<g id="edge7" class="edge">
<title>D&#45;&gt;RISK</title>
<path fill="none" stroke="#555555" d="M534.13,-69.87C554.52,-62.11 578.6,-52.94 600.36,-44.65"/>
<polygon fill="#555555" stroke="#555555" points="601.37,-46.89 607.04,-42.11 599.62,-42.31 601.37,-46.89"/>
</g>
<!-- REP -->
<g id="node6" class="node">
<title>REP</title>
<path fill="white" stroke="#555555" d="M1009,-106C1009,-106 943,-106 943,-106 937,-106 931,-100 931,-94 931,-94 931,-82 931,-82 931,-76 937,-70 943,-70 943,-70 1009,-70 1009,-70 1015,-70 1021,-76 1021,-82 1021,-82 1021,-94 1021,-94 1021,-100 1015,-106 1009,-106"/>
<text text-anchor="middle" x="976" y="-84.3" font-family="Noto Sans" font-size="14.00">4th Report</text>
</g>
<!-- K&#45;&gt;REP -->
<g id="edge5" class="edge">
<title>K&#45;&gt;REP</title>
<path fill="none" stroke="#555555" d="M891.21,-88C901.81,-88 913.03,-88 923.69,-88"/>
<polygon fill="#555555" stroke="#555555" points="923.96,-90.45 930.96,-88 923.96,-85.55 923.96,-90.45"/>
</g>
<!-- PMS&#45;&gt;K -->
<g id="edge8" class="edge">
<title>PMS&#45;&gt;K</title>
<path fill="none" stroke="#555555" d="M750.21,-88C761.18,-88 772.2,-88 782.56,-88"/>
<polygon fill="#555555" stroke="#555555" points="782.62,-90.45 789.62,-88 782.62,-85.55 782.62,-90.45"/>
</g>
<!-- RISK&#45;&gt;K -->
<g id="edge9" class="edge">
<title>RISK&#45;&gt;K</title>
<path fill="none" stroke="#555555" d="M719.39,-42.02C740.56,-50.12 764.69,-59.36 785.75,-67.42"/>
<polygon fill="#555555" stroke="#555555" points="785.06,-69.78 792.47,-69.99 786.81,-65.2 785.06,-69.78"/>
</g>
</g>
</svg>
