<?xml version="1.0" encoding="UTF-8" standalone="no"?>
<!DOCTYPE svg PUBLIC "-//W3C//DTD SVG 1.1//EN"
 "http://www.w3.org/Graphics/SVG/1.1/DTD/svg11.dtd">
<!-- Generated by graphviz version 2.42.4 (0)
 -->
<!-- Title: incident Pages: 1 -->
<svg width="1938pt" height="226pt"
 viewBox="0.00 0.00 1938.00 226.18" xmlns="http://www.w3.org/2000/svg" xmlns:xlink="http://www.w3.org/1999/xlink">
<g id="graph0" class="graph" transform="scale(1 1) rotate(0) translate(18 208.18)">
<title>incident</title>
<polygon fill="white" stroke="transparent" points="-18,18 -18,-208.18 1920,-208.18 1920,18 -18,18"/>
<!-- S -->
<g id="node1" class="node">
<title>S</title>
<ellipse fill="#e8eef9" stroke="#555555" cx="950" cy="-171.09" rx="61.54" ry="19.18"/>
<text text-anchor="middle" x="950" y="-167.39" font-family="Noto Sans" font-size="14.00">SYMPTOM</text>
</g>
<!-- T -->
<g id="node2" class="node">
<title>T</title>
<path fill="white" stroke="#555555" d="M354.5,-112C354.5,-112 229.5,-112 229.5,-112 223.5,-112 217.5,-106 217.5,-100 217.5,-100 217.5,-88 217.5,-88 217.5,-82 223.5,-76 229.5,-76 229.5,-76 354.5,-76 354.5,-76 360.5,-76 366.5,-82 366.5,-88 366.5,-88 366.5,-100 366.5,-100 366.5,-106 360.5,-112 354.5,-112"/>
<text text-anchor="middle" x="292" y="-90.3" font-family="Noto Sans" font-size="14.00">Transaction missing</text>
</g>
<!-- S&#45;&gt;T -->
<g id="edge1" class="edge">
<title>S&#45;&gt;T</title>
<path fill="none" stroke="#555555" d="M893.33,-163.62C776.65,-150.31 509.19,-119.79 373.77,-104.33"/>
<polygon fill="#555555" stroke="#555555" points="373.86,-101.88 366.63,-103.52 373.3,-106.74 373.86,-101.88"/>
</g>
<!-- B -->
<g id="node3" class="node">
<title>B</title>
<path fill="white" stroke="#555555" d="M841.5,-112C841.5,-112 714.5,-112 714.5,-112 708.5,-112 702.5,-106 702.5,-100 702.5,-100 702.5,-88 702.5,-88 702.5,-82 708.5,-76 714.5,-76 714.5,-76 841.5,-76 841.5,-76 847.5,-76 853.5,-82 853.5,-88 853.5,-88 853.5,-100 853.5,-100 853.5,-106 847.5,-112 841.5,-112"/>
<text text-anchor="middle" x="778" y="-90.3" font-family="Noto Sans" font-size="14.00">Batch late/duplicate</text>
</g>
<!-- S&#45;&gt;B -->
<g id="edge2" class="edge">
<title>S&#45;&gt;B</title>
<path fill="none" stroke="#555555" d="M915.61,-155.08C889.29,-143.59 852.73,-127.63 823.91,-115.05"/>
<polygon fill="#555555" stroke="#555555" points="824.54,-112.64 817.14,-112.09 822.58,-117.13 824.54,-112.64"/>
</g>
<!-- R -->
<g id="node4" class="node">
<title>R</title>
<path fill="white" stroke="#555555" d="M1165.5,-112C1165.5,-112 1080.5,-112 1080.5,-112 1074.5,-112 1068.5,-106 1068.5,-100 1068.5,-100 1068.5,-88 1068.5,-88 1068.5,-82 1074.5,-76 1080.5,-76 1080.5,-76 1165.5,-76 1165.5,-76 1171.5,-76 1177.5,-82 1177.5,-88 1177.5,-88 1177.5,-100 1177.5,-100 1177.5,-106 1171.5,-112 1165.5,-112"/>
<text text-anchor="middle" x="1123" y="-90.3" font-family="Noto Sans" font-size="14.00">Report wrong</text>
</g>
<!-- S&#45;&gt;R -->
<g id="edge3" class="edge">
<title>S&#45;&gt;R</title>
<path fill="none" stroke="#555555" d="M984.59,-155.08C1011.18,-143.54 1048.14,-127.49 1077.18,-114.89"/>
<polygon fill="#555555" stroke="#555555" points="1078.18,-117.12 1083.63,-112.09 1076.23,-112.63 1078.18,-117.12"/>
</g>
<!-- I -->
<g id="node5" class="node">
<title>I</title>
<path fill="white" stroke="#555555" d="M1640.5,-112C1640.5,-112 1519.5,-112 1519.5,-112 1513.5,-112 1507.5,-106 1507.5,-100 1507.5,-100 1507.5,-88 1507.5,-88 1507.5,-82 1513.5,-76 1519.5,-76 1519.5,-76 1640.5,-76 1640.5,-76 1646.5,-76 1652.5,-82 1652.5,-88 1652.5,-88 1652.5,-100 1652.5,-100 1652.5,-106 1646.5,-112 1640.5,-112"/>
<text text-anchor="middle" x="1580" y="-90.3" font-family="Noto Sans" font-size="14.00">Infrastructure slow</text>
</g>
<!-- S&#45;&gt;I -->
<g id="edge4" class="edge">
<title>S&#45;&gt;I</title>
<path fill="none" stroke="#555555" d="M1006.46,-163.36C1118.88,-149.96 1370.96,-119.92 1500.23,-104.51"/>
<polygon fill="#555555" stroke="#555555" points="1500.76,-106.91 1507.43,-103.65 1500.18,-102.05 1500.76,-106.91"/>
</g>
<!-- T0 -->
<g id="node6" class="node">
<title>T0</title>
<polygon fill="white" stroke="#555555" points="66,-36 0,-36 0,0 72,0 72,-30 66,-36"/>
<polyline fill="none" stroke="#555555" points="66,-36 66,-30 "/>
<polyline fill="none" stroke="#555555" points="72,-30 66,-30 "/>
<text text-anchor="middle" x="36" y="-14.3" font-family="Noto Sans" font-size="14.00">Trace ID</text>
</g>
<!-- T&#45;&gt;T0 -->
<g id="edge5" class="edge">
<title>T&#45;&gt;T0</title>
<path fill="none" stroke="#555555" d="M224.66,-75.88C183.76,-65.15 130.62,-50.62 84,-36 82.3,-35.47 80.58,-34.91 78.83,-34.35"/>
<polygon fill="#555555" stroke="#555555" points="79.49,-31.98 72.07,-32.09 77.94,-36.63 79.49,-31.98"/>
</g>
<!-- T1 -->
<g id="node7" class="node">
<title>T1</title>
<polygon fill="white" stroke="#555555" points="209,-36 97,-36 97,0 215,0 215,-30 209,-36"/>
<polyline fill="none" stroke="#555555" points="209,-36 209,-30 "/>
<polyline fill="none" stroke="#555555" points="215,-30 209,-30 "/>
<text text-anchor="middle" x="156" y="-14.3" font-family="Noto Sans" font-size="14.00">Master/History</text>
</g>
<!-- T&#45;&gt;T1 -->
<g id="edge6" class="edge">
<title>T&#45;&gt;T1</title>
<path fill="none" stroke="#555555" d="M260.46,-75.84C240.55,-65 214.71,-50.95 193.72,-39.52"/>
<polygon fill="#555555" stroke="#555555" points="194.69,-37.26 187.37,-36.07 192.35,-41.57 194.69,-37.26"/>
</g>
<!-- T2 -->
<g id="node8" class="node">
<title>T2</title>
<polygon fill="white" stroke="#555555" points="337.5,-36 240.5,-36 240.5,0 343.5,0 343.5,-30 337.5,-36"/>
<polyline fill="none" stroke="#555555" points="337.5,-36 337.5,-30 "/>
<polyline fill="none" stroke="#555555" points="343.5,-30 337.5,-30 "/>
<text text-anchor="middle" x="292" y="-14.3" font-family="Noto Sans" font-size="14.00">Slip/Voucher</text>
</g>
<!-- T&#45;&gt;T2 -->
<g id="edge7" class="edge">
<title>T&#45;&gt;T2</title>
<path fill="none" stroke="#555555" d="M292,-75.84C292,-66.12 292,-53.82 292,-43.15"/>
<polygon fill="#555555" stroke="#555555" points="294.45,-43.07 292,-36.07 289.55,-43.07 294.45,-43.07"/>
</g>
<!-- T3 -->
<g id="node9" class="node">
<title>T3</title>
<polygon fill="white" stroke="#555555" points="459.5,-36 368.5,-36 368.5,0 465.5,0 465.5,-30 459.5,-36"/>
<polyline fill="none" stroke="#555555" points="459.5,-36 459.5,-30 "/>
<polyline fill="none" stroke="#555555" points="465.5,-30 459.5,-30 "/>
<text text-anchor="middle" x="417" y="-14.3" font-family="Noto Sans" font-size="14.00">GL/Reversal</text>
</g>
<!-- T&#45;&gt;T3 -->
<g id="edge8" class="edge">
<title>T&#45;&gt;T3</title>
<path fill="none" stroke="#555555" d="M320.99,-75.84C339.21,-65.05 362.83,-51.07 382.08,-39.67"/>
<polygon fill="#555555" stroke="#555555" points="383.39,-41.74 388.17,-36.07 380.89,-37.53 383.39,-41.74"/>
</g>
<!-- B0 -->
<g id="node10" class="node">
<title>B0</title>
<polygon fill="white" stroke="#555555" points="587.5,-36 490.5,-36 490.5,0 593.5,0 593.5,-30 587.5,-36"/>
<polyline fill="none" stroke="#555555" points="587.5,-36 587.5,-30 "/>
<polyline fill="none" stroke="#555555" points="593.5,-30 587.5,-30 "/>
<text text-anchor="middle" x="542" y="-14.3" font-family="Noto Sans" font-size="14.00">Dependency</text>
</g>
<!-- B&#45;&gt;B0 -->
<g id="edge9" class="edge">
<title>B&#45;&gt;B0</title>
<path fill="none" stroke="#555555" d="M723.56,-75.93C686.78,-64.4 638.26,-49.18 600.63,-37.38"/>
<polygon fill="#555555" stroke="#555555" points="601.15,-34.98 593.74,-35.22 599.68,-39.65 601.15,-34.98"/>
</g>
<!-- B1 -->
<g id="node11" class="node">
<title>B1</title>
<polygon fill="white" stroke="#555555" points="695.5,-36 618.5,-36 618.5,0 701.5,0 701.5,-30 695.5,-36"/>
<polyline fill="none" stroke="#555555" points="695.5,-36 695.5,-30 "/>
<polyline fill="none" stroke="#555555" points="701.5,-30 695.5,-30 "/>
<text text-anchor="middle" x="660" y="-14.3" font-family="Noto Sans" font-size="14.00">Lock/Wait</text>
</g>
<!-- B&#45;&gt;B1 -->
<g id="edge10" class="edge">
<title>B&#45;&gt;B1</title>
<path fill="none" stroke="#555555" d="M750.63,-75.84C733.5,-65.1 711.33,-51.19 693.2,-39.82"/>
<polygon fill="#555555" stroke="#555555" points="694.45,-37.71 687.22,-36.07 691.85,-41.86 694.45,-37.71"/>
</g>
<!-- B2 -->
<g id="node12" class="node">
<title>B2</title>
<polygon fill="white" stroke="#555555" points="823,-36 727,-36 727,0 829,0 829,-30 823,-36"/>
<polyline fill="none" stroke="#555555" points="823,-36 823,-30 "/>
<polyline fill="none" stroke="#555555" points="829,-30 823,-30 "/>
<text text-anchor="middle" x="778" y="-14.3" font-family="Noto Sans" font-size="14.00">Partition/I/O</text>
</g>
<!-- B&#45;&gt;B2 -->
<g id="edge11" class="edge">
<title>B&#45;&gt;B2</title>
<path fill="none" stroke="#555555" d="M778,-75.84C778,-66.12 778,-53.82 778,-43.15"/>
<polygon fill="#555555" stroke="#555555" points="780.45,-43.07 778,-36.07 775.55,-43.07 780.45,-43.07"/>
</g>
<!-- B3 -->
<g id="node13" class="node">
<title>B3</title>
<polygon fill="white" stroke="#555555" points="954,-36 854,-36 854,0 960,0 960,-30 954,-36"/>
<polyline fill="none" stroke="#555555" points="954,-36 954,-30 "/>
<polyline fill="none" stroke="#555555" points="960,-30 954,-30 "/>
<text text-anchor="middle" x="907" y="-14.3" font-family="Noto Sans" font-size="14.00">Idempotency</text>
</g>
<!-- B&#45;&gt;B3 -->
<g id="edge12" class="edge">
<title>B&#45;&gt;B3</title>
<path fill="none" stroke="#555555" d="M807.92,-75.84C826.72,-65.05 851.1,-51.07 870.96,-39.67"/>
<polygon fill="#555555" stroke="#555555" points="872.39,-41.68 877.24,-36.07 869.95,-37.43 872.39,-41.68"/>
</g>
<!-- R0 -->
<g id="node14" class="node">
<title>R0</title>
<polygon fill="white" stroke="#555555" points="1034.5,-36 985.5,-36 985.5,0 1040.5,0 1040.5,-30 1034.5,-36"/>
<polyline fill="none" stroke="#555555" points="1034.5,-36 1034.5,-30 "/>
<polyline fill="none" stroke="#555555" points="1040.5,-30 1034.5,-30 "/>
<text text-anchor="middle" x="1013" y="-14.3" font-family="Noto Sans" font-size="14.00">Grain</text>
</g>
<!-- R&#45;&gt;R0 -->
<g id="edge13" class="edge">
<title>R&#45;&gt;R0</title>
<path fill="none" stroke="#555555" d="M1097.49,-75.84C1081.66,-65.19 1061.21,-51.43 1044.39,-40.12"/>
<polygon fill="#555555" stroke="#555555" points="1045.55,-37.94 1038.37,-36.07 1042.81,-42.01 1045.55,-37.94"/>
</g>
<!-- R1 -->
<g id="node15" class="node">
<title>R1</title>
<polygon fill="white" stroke="#555555" points="1174.5,-36 1065.5,-36 1065.5,0 1180.5,0 1180.5,-30 1174.5,-36"/>
<polyline fill="none" stroke="#555555" points="1174.5,-36 1174.5,-30 "/>
<polyline fill="none" stroke="#555555" points="1180.5,-30 1174.5,-30 "/>
<text text-anchor="middle" x="1123" y="-14.3" font-family="Noto Sans" font-size="14.00">Join cardinality</text>
</g>
<!-- R&#45;&gt;R1 -->
<g id="edge14" class="edge">
<title>R&#45;&gt;R1</title>
<path fill="none" stroke="#555555" d="M1123,-75.84C1123,-66.12 1123,-53.82 1123,-43.15"/>
<polygon fill="#555555" stroke="#555555" points="1125.45,-43.07 1123,-36.07 1120.55,-43.07 1125.45,-43.07"/>
</g>
<!-- R2 -->
<g id="node16" class="node">
<title>R2</title>
<polygon fill="white" stroke="#555555" points="1278.5,-36 1205.5,-36 1205.5,0 1284.5,0 1284.5,-30 1278.5,-36"/>
<polyline fill="none" stroke="#555555" points="1278.5,-36 1278.5,-30 "/>
<polyline fill="none" stroke="#555555" points="1284.5,-30 1278.5,-30 "/>
<text text-anchor="middle" x="1245" y="-14.3" font-family="Noto Sans" font-size="14.00">SCD date</text>
</g>
<!-- R&#45;&gt;R2 -->
<g id="edge15" class="edge">
<title>R&#45;&gt;R2</title>
<path fill="none" stroke="#555555" d="M1151.3,-75.84C1169,-65.1 1191.93,-51.19 1210.68,-39.82"/>
<polygon fill="#555555" stroke="#555555" points="1212.14,-41.8 1216.86,-36.07 1209.6,-37.61 1212.14,-41.8"/>
</g>
<!-- R3 -->
<g id="node17" class="node">
<title>R3</title>
<polygon fill="white" stroke="#555555" points="1416,-36 1310,-36 1310,0 1422,0 1422,-30 1416,-36"/>
<polyline fill="none" stroke="#555555" points="1416,-36 1416,-30 "/>
<polyline fill="none" stroke="#555555" points="1422,-30 1416,-30 "/>
<text text-anchor="middle" x="1366" y="-14.3" font-family="Noto Sans" font-size="14.00">Reconciliation</text>
</g>
<!-- R&#45;&gt;R3 -->
<g id="edge16" class="edge">
<title>R&#45;&gt;R3</title>
<path fill="none" stroke="#555555" d="M1177.53,-76.39C1214.68,-65.08 1263.98,-50.07 1302.83,-38.24"/>
<polygon fill="#555555" stroke="#555555" points="1303.98,-40.45 1309.96,-36.06 1302.55,-35.76 1303.98,-40.45"/>
</g>
<!-- I0 -->
<g id="node18" class="node">
<title>I0</title>
<polygon fill="white" stroke="#555555" points="1495,-36 1447,-36 1447,0 1501,0 1501,-30 1495,-36"/>
<polyline fill="none" stroke="#555555" points="1495,-36 1495,-30 "/>
<polyline fill="none" stroke="#555555" points="1501,-30 1495,-30 "/>
<text text-anchor="middle" x="1474" y="-14.3" font-family="Noto Sans" font-size="14.00">L4</text>
</g>
<!-- I&#45;&gt;I0 -->
<g id="edge17" class="edge">
<title>I&#45;&gt;I0</title>
<path fill="none" stroke="#555555" d="M1555.42,-75.84C1540.16,-65.19 1520.45,-51.43 1504.25,-40.12"/>
<polygon fill="#555555" stroke="#555555" points="1505.59,-38.07 1498.45,-36.07 1502.79,-42.09 1505.59,-38.07"/>
</g>
<!-- I1 -->
<g id="node19" class="node">
<title>I1</title>
<polygon fill="white" stroke="#555555" points="1628,-36 1526,-36 1526,0 1634,0 1634,-30 1628,-36"/>
<polyline fill="none" stroke="#555555" points="1628,-36 1628,-30 "/>
<polyline fill="none" stroke="#555555" points="1634,-30 1628,-30 "/>
<text text-anchor="middle" x="1580" y="-14.3" font-family="Noto Sans" font-size="14.00">AP/Tmax pool</text>
</g>
<!-- I&#45;&gt;I1 -->
<g id="edge18" class="edge">
<title>I&#45;&gt;I1</title>
<path fill="none" stroke="#555555" d="M1580,-75.84C1580,-66.12 1580,-53.82 1580,-43.15"/>
<polygon fill="#555555" stroke="#555555" points="1582.45,-43.07 1580,-36.07 1577.55,-43.07 1582.45,-43.07"/>
</g>
<!-- I2 -->
<g id="node20" class="node">
<title>I2</title>
<polygon fill="white" stroke="#555555" points="1777,-36 1659,-36 1659,0 1783,0 1783,-30 1777,-36"/>
<polyline fill="none" stroke="#555555" points="1777,-36 1777,-30 "/>
<polyline fill="none" stroke="#555555" points="1783,-30 1777,-30 "/>
<text text-anchor="middle" x="1721" y="-14.3" font-family="Noto Sans" font-size="14.00">DB wait/blocker</text>
</g>
<!-- I&#45;&gt;I2 -->
<g id="edge19" class="edge">
<title>I&#45;&gt;I2</title>
<path fill="none" stroke="#555555" d="M1612.7,-75.84C1633.43,-64.96 1660.36,-50.83 1682.17,-39.38"/>
<polygon fill="#555555" stroke="#555555" points="1683.42,-41.49 1688.47,-36.07 1681.14,-37.15 1683.42,-41.49"/>
</g>
<!-- I3 -->
<g id="node21" class="node">
<title>I3</title>
<polygon fill="white" stroke="#555555" points="1896,-36 1808,-36 1808,0 1902,0 1902,-30 1896,-36"/>
<polyline fill="none" stroke="#555555" points="1896,-36 1896,-30 "/>
<polyline fill="none" stroke="#555555" points="1902,-30 1896,-30 "/>
<text text-anchor="middle" x="1855" y="-14.3" font-family="Noto Sans" font-size="14.00">Storage/DR</text>
</g>
<!-- I&#45;&gt;I3 -->
<g id="edge20" class="edge">
<title>I&#45;&gt;I3</title>
<path fill="none" stroke="#555555" d="M1646.28,-75.92C1689.07,-64.79 1745.9,-49.83 1796,-36 1797.54,-35.57 1799.11,-35.14 1800.69,-34.7"/>
<polygon fill="#555555" stroke="#555555" points="1801.61,-36.98 1807.69,-32.73 1800.29,-32.27 1801.61,-36.98"/>
</g>
</g>
</svg>
